<?xml version="1.0" standalone="no"?>
<!DOCTYPE svg PUBLIC "-//W3C//DTD SVG 20010904//EN"
 "http://www.w3.org/TR/2001/REC-SVG-20010904/DTD/svg10.dtd">
<svg version="1.0" xmlns="http://www.w3.org/2000/svg"
 width="842.000000pt" height="403.000000pt" viewBox="0 0 842.000000 403.000000"
 preserveAspectRatio="xMidYMid meet">

<g transform="translate(0.000000,403.000000) scale(0.100000,-0.100000)"
fill="#000000" stroke="none">
<path d="M0 3222 c0 -803 0 -808 21 -830 21 -23 22 -26 33 -105 8 -52 12 -76
22 -119 8 -41 -10 -34 -40 15 -18 28 -25 34 -20 17 4 -14 19 -39 34 -57 16
-17 31 -41 35 -52 3 -12 11 -21 16 -21 6 0 8 8 5 18 -5 15 -15 96 -31 237 -4
37 -13 57 -37 82 -32 33 -32 33 -16 67 11 22 13 37 6 44 -6 6 -4 20 7 42 12
23 15 45 10 79 -3 25 -2 58 3 71 5 14 11 30 12 35 1 6 5 15 10 20 4 6 15 42
24 80 55 235 72 296 111 405 37 102 93 282 100 319 3 19 10 42 15 52 16 28 12
42 -10 36 -18 -5 -18 -4 -2 22 9 14 21 30 27 34 7 6 6 10 -2 14 -18 7 -16 32
2 39 11 4 15 18 13 41 -1 19 2 37 7 41 6 4 11 14 13 22 2 8 13 25 24 37 18 20
19 26 8 52 -6 16 -9 39 -5 50 6 21 4 21 -194 21 l-201 0 0 -808z m382 706
c-15 -15 -24 -6 -16 16 5 12 10 14 17 7 8 -8 8 -14 -1 -23z"/>
<path d="M630 4022 c0 -4 16 -46 35 -92 19 -47 35 -93 35 -102 0 -10 11 -47
25 -83 24 -64 24 -74 25 -333 1 -154 6 -282 12 -303 8 -27 19 -39 44 -50 38
-14 40 -19 49 -119 10 -113 16 -164 25 -210 5 -25 12 -70 15 -101 2 -31 12
-76 21 -100 9 -24 17 -57 16 -74 -1 -155 -3 -232 -8 -250 -3 -14 -21 -28 -47
-39 -23 -10 -55 -24 -70 -32 -26 -15 -29 -14 -48 10 -41 52 -137 28 -174 -44
-22 -42 -18 -74 11 -109 14 -17 24 -31 22 -31 -1 -1 -25 -2 -52 -4 -34 -3 -54
-10 -65 -24 -9 -11 -26 -25 -39 -31 -12 -7 -47 -32 -76 -56 -30 -24 -57 -41
-62 -37 -4 4 -4 2 -1 -5 4 -6 -2 -28 -12 -50 -36 -69 -70 -148 -77 -176 -5
-20 -10 -25 -17 -18 -20 20 -28 11 -22 -23 8 -40 -11 -174 -27 -193 -5 -7 -14
-10 -19 -7 -5 3 -9 0 -9 -6 0 -7 7 -10 15 -6 22 8 19 -27 -3 -47 -10 -10 -29
-17 -42 -17 -13 0 -21 -3 -17 -6 3 -4 -5 -21 -18 -39 -31 -40 -34 -101 -5
-138 25 -31 25 -31 -4 -60 -26 -26 -46 -83 -46 -132 0 -26 61 -135 75 -135 3
0 2 27 -2 60 -7 70 9 102 60 124 40 16 54 11 72 -25 19 -36 19 -63 0 -79 -26
-21 -85 -129 -85 -154 0 -13 -7 -29 -15 -36 -8 -7 -15 -23 -15 -36 0 -13 -2
-24 -5 -24 -5 0 -51 39 -81 67 -17 17 -24 16 -24 -2 0 -9 15 -29 34 -46 36
-31 116 -180 116 -214 -1 -18 -2 -18 -10 -3 -11 19 -65 48 -88 48 -9 0 -24 7
-34 17 -17 16 -18 8 -18 -215 0 -225 1 -232 20 -232 15 0 22 11 31 46 13 49
52 104 75 104 8 0 35 -19 59 -41 37 -34 50 -41 76 -37 20 3 33 0 36 -8 3 -7
24 -25 48 -39 l44 -25 280 0 c176 0 282 4 286 10 8 13 45 13 45 0 0 -6 93 -10
260 -10 236 0 260 2 260 17 0 9 7 23 15 32 8 9 28 31 44 48 17 18 37 33 45 33
14 0 13 -9 -9 -107 l-5 -23 634 0 c498 0 635 3 639 13 4 9 6 9 6 0 1 -10 81
-13 367 -13 238 0 363 3 359 10 -3 5 0 7 8 4 8 -3 18 -1 22 5 9 16 25 13 25
-4 0 -11 12 -15 44 -15 l44 0 11 63 c31 172 35 241 19 323 -15 77 -15 80 6
105 43 53 53 54 76 1 12 -26 39 -114 61 -197 40 -155 41 -183 12 -252 -7 -18
-13 -35 -13 -38 0 -3 520 -5 1156 -5 l1156 0 -6 35 c-12 64 -8 141 9 174 10
20 19 68 22 119 4 75 1 98 -20 166 -27 83 -26 106 4 106 16 0 19 -7 19 -41 0
-23 9 -80 21 -126 21 -90 19 -147 -12 -335 -6 -38 -9 -75 -5 -83 5 -13 84 -15
637 -15 l632 0 -5 130 c-3 72 -1 130 4 130 4 0 8 -21 8 -47 0 -27 3 -85 7
-130 l6 -82 332 -1 333 0 6 22 c3 13 6 65 6 116 l0 92 30 0 c23 0 43 14 90 60
33 34 60 68 60 77 0 13 -5 12 -26 -8 -22 -21 -24 -21 -18 -4 4 11 16 31 26 44
10 13 18 40 18 62 l0 38 -27 -14 c-36 -18 -165 -56 -171 -50 -2 2 -7 73 -9
157 l-6 153 44 35 c32 26 60 38 103 45 63 11 92 35 34 27 l-33 -4 33 21 32 21
0 822 c0 804 -1 822 -19 783 -10 -22 -24 -58 -31 -80 -18 -57 -54 -110 -119
-181 -31 -34 -78 -91 -106 -127 -27 -37 -56 -69 -64 -72 -8 -3 -32 7 -54 22
-45 31 -71 31 -105 0 l-23 -21 -42 21 c-23 12 -67 29 -98 38 -53 15 -57 18
-69 58 -8 23 -18 47 -23 54 -12 16 78 187 107 202 26 15 68 73 57 81 -9 6 2
121 22 215 8 39 18 151 21 250 10 285 19 355 46 355 6 0 32 16 58 35 27 19 69
44 93 55 24 11 38 20 31 20 -22 0 -78 -27 -133 -64 -63 -42 -74 -35 -66 44 4
39 1 52 -15 70 -16 17 -19 31 -15 63 2 23 0 72 -5 108 -9 54 -8 72 5 100 20
45 44 124 53 174 4 22 13 57 20 78 l13 37 -62 0 c-42 0 -72 -6 -92 -18 -36
-22 -146 -62 -169 -62 -30 0 -16 17 24 29 22 6 59 20 82 31 l43 19 -138 0
-138 1 33 -30 c18 -16 38 -30 45 -30 19 0 16 -20 -4 -27 -10 -4 -24 -14 -31
-22 -10 -14 -11 -12 -6 12 3 15 2 27 -3 27 -4 0 -33 -73 -62 -162 -31 -94 -67
-182 -84 -207 -17 -25 -43 -70 -59 -100 -16 -31 -37 -70 -48 -87 -21 -33 -17
-69 6 -60 8 3 14 1 14 -4 0 -6 -3 -10 -7 -10 -11 0 -7 -575 3 -630 5 -25 8
-97 7 -160 -5 -253 -8 -339 -14 -345 -4 -3 -9 45 -12 107 -5 117 -20 188 -39
188 -7 0 -8 -14 -3 -42 14 -77 7 -127 -34 -238 -16 -44 -18 -45 -77 -57 -33
-6 -97 -28 -143 -47 -45 -20 -85 -36 -87 -36 -2 0 -4 23 -4 51 0 28 -5 105
-12 172 -11 114 -14 230 -7 268 1 10 9 14 19 12 11 -3 16 2 15 19 0 13 -4 29
-8 35 -5 9 -3 11 6 7 7 -2 14 1 14 8 2 61 29 206 48 263 21 64 37 145 50 268
3 26 11 60 16 75 15 38 19 56 36 152 9 47 17 86 18 88 1 1 15 -2 31 -8 l29
-10 -24 20 c-13 12 -31 25 -40 29 -12 7 -13 14 -4 34 9 19 7 52 -11 155 -13
76 -20 136 -15 144 12 19 11 40 -2 36 -6 -2 -11 -8 -11 -13 -1 -6 -13 -19 -27
-30 -29 -22 -77 -65 -158 -141 -60 -56 -71 -63 -153 -89 -91 -29 -106 -37
-130 -73 -26 -37 -104 -105 -126 -108 -7 -1 -27 -12 -44 -24 -17 -12 -38 -19
-47 -16 -13 5 -14 4 -3 -9 11 -13 10 -14 -2 -10 -12 5 -14 0 -10 -22 2 -15 2
-26 -1 -23 -3 3 -7 18 -9 33 -2 15 -8 27 -14 27 -5 0 -12 -64 -16 -142 -4 -79
-9 -181 -12 -228 -6 -91 0 -144 15 -134 14 8 11 -50 -3 -65 -10 -11 -10 -13 0
-7 8 5 12 -2 12 -23 0 -17 -4 -31 -9 -31 -4 0 -6 -12 -4 -27 3 -21 2 -24 -5
-14 -20 28 -40 -5 -41 -67 -1 -31 -4 -79 -7 -107 -8 -74 -7 -184 2 -235 4 -25
7 -58 5 -75 -6 -70 -1 -153 12 -195 7 -25 12 -58 11 -75 -2 -16 -6 -123 -9
-236 -3 -113 -8 -215 -10 -225 -4 -25 -14 -122 -20 -202 -3 -35 -9 -71 -15
-82 -5 -10 -10 -30 -10 -43 0 -22 -15 -61 -41 -109 -5 -10 -9 -25 -9 -33 0 -8
-5 -15 -11 -15 -8 0 -9 33 -4 112 4 62 7 185 8 273 1 198 -20 293 -98 452 -45
93 -51 111 -43 135 15 43 1 97 -34 130 l-30 28 11 162 c6 90 15 192 21 228 21
138 28 176 35 194 7 16 5 18 -8 13 -15 -6 -17 2 -17 65 0 70 0 71 19 54 15
-14 18 -27 14 -54 l-5 -37 19 23 c17 21 21 22 32 9 13 -16 142 -97 154 -97 4
0 7 6 7 13 0 6 -20 20 -45 30 -40 17 -180 131 -196 161 -15 27 -29 422 -17
501 6 43 2 42 88 30 31 -5 33 -4 18 8 -16 12 -129 30 -181 29 -9 -1 -29 -10
-43 -21 -31 -25 -25 -27 16 -6 18 9 31 11 35 5 3 -5 -70 -46 -162 -91 -92 -45
-181 -94 -197 -108 -26 -24 -28 -24 -17 -4 14 27 45 49 135 97 75 39 77 45 6
20 -73 -26 -93 -36 -142 -76 l-46 -38 -29 24 c-16 14 -37 43 -47 65 -18 39
-38 52 -96 65 -33 7 -116 62 -124 82 -3 9 -1 23 4 32 9 14 10 12 4 -7 -4 -15
-2 -21 4 -17 6 3 12 1 14 -6 3 -7 7 -2 10 10 4 12 3 20 -1 17 -4 -2 -8 2 -8 9
0 8 6 12 12 10 7 -3 18 3 26 13 12 16 12 17 -2 6 -13 -10 -16 -10 -16 1 0 14
14 16 33 3 8 -4 11 4 9 26 -2 17 1 38 7 44 6 7 8 19 5 26 -3 7 5 19 16 27 20
12 21 12 8 -4 -13 -15 -12 -16 14 -6 23 9 26 8 17 -3 -9 -10 -6 -13 16 -13 15
1 30 6 34 11 5 6 8 4 8 -5 0 -13 1 -13 10 0 5 8 10 10 10 4 0 -15 58 -8 78 8
9 7 13 8 9 2 -3 -6 0 -20 8 -30 13 -18 14 -18 8 6 -5 25 -5 25 11 5 10 -11 15
-14 11 -7 -3 6 -1 12 5 12 6 0 8 5 4 12 -5 7 -3 8 5 4 7 -5 10 -15 6 -24 -5
-14 -4 -14 12 0 16 14 21 15 37 2 15 -10 23 -11 33 -2 11 9 13 8 11 -3 -2 -8
3 -13 10 -12 6 2 12 -3 12 -10 0 -8 4 -7 10 3 7 11 10 11 10 2 0 -7 5 -10 10
-7 6 3 10 0 10 -7 0 -8 3 -9 8 -3 4 6 16 12 26 13 18 3 18 2 5 -14 -12 -16
-12 -17 1 -9 8 6 18 10 22 10 3 0 10 4 15 9 4 5 3 7 -3 3 -6 -3 -11 0 -11 8 0
9 5 11 11 6 21 -16 45 -20 52 -9 5 7 2 8 -6 3 -8 -5 -11 -4 -6 3 9 15 38 3 29
-12 -3 -6 3 -3 14 7 11 9 23 14 26 10 4 -3 7 -2 7 4 0 19 -13 23 -25 6 -9 -13
-14 -13 -20 -3 -5 8 -4 11 2 7 6 -4 14 0 17 9 4 11 10 13 19 7 14 -11 27 -11
45 0 6 5 12 5 12 0 0 -4 5 -1 10 7 8 12 10 9 7 -10 -2 -14 -2 -19 0 -12 3 7 9
10 14 6 5 -3 6 -11 3 -17 -4 -7 -3 -8 2 -4 10 9 10 12 14 55 2 27 2 27 9 3 3
-13 14 -25 23 -27 10 -1 15 3 11 12 -2 7 3 23 12 36 l17 23 -6 -25 c-3 -14 -3
-19 0 -12 4 9 9 10 19 2 9 -8 15 -8 20 0 3 6 10 8 15 5 4 -3 13 2 20 10 15 18
34 20 24 3 -4 -7 -3 -8 5 -4 6 4 8 12 5 18 -5 8 -1 9 11 4 16 -6 16 -4 4 11
-12 15 -12 16 3 10 10 -3 20 -2 23 4 4 5 10 7 14 5 4 -3 8 1 9 9 1 8 3 21 4
29 1 15 22 14 55 -1 22 -11 44 -10 62 1 10 6 12 5 7 -2 -4 -7 -2 -12 3 -12 6
0 11 6 11 13 0 8 4 7 10 -3 9 -14 15 -7 11 14 -1 5 4 4 12 -3 12 -9 16 -9 20
1 4 8 6 7 6 -4 1 -10 4 -17 9 -17 21 4 32 -2 26 -13 -5 -9 -2 -9 9 1 11 9 17
10 17 2 0 -6 9 -2 20 9 12 12 25 18 30 15 5 -3 11 -1 14 4 4 5 2 12 -4 16 -6
4 -7 13 -2 23 10 20 10 33 -1 49 -6 9 -3 11 8 7 9 -4 15 -3 13 2 -2 5 1 9 5 9
5 0 13 8 19 18 9 18 11 18 29 1 15 -13 19 -14 20 -3 0 8 4 6 9 -6 5 -11 9 -15
9 -9 1 7 8 15 17 18 15 6 15 4 3 -11 -7 -10 -9 -15 -5 -11 5 4 16 2 24 -5 13
-10 15 -9 9 8 -7 18 -6 19 6 3 8 -10 17 -14 21 -10 4 4 6 1 4 -7 -2 -7 3 -16
11 -19 9 -3 11 0 6 8 -5 8 -4 11 2 7 6 -4 23 3 37 14 15 12 30 18 34 14 4 -4
-3 -15 -16 -25 -14 -11 -20 -24 -16 -35 4 -9 9 -14 13 -13 3 2 18 10 32 17 29
15 36 53 13 72 -8 6 -14 19 -14 28 0 13 2 13 9 2 7 -11 10 -11 14 0 4 10 6 8
4 -3 -1 -9 3 -17 8 -17 6 0 9 8 7 17 -2 14 -1 15 7 2 5 -8 7 -18 5 -22 -10
-15 9 -8 23 10 13 15 13 15 3 -5 -9 -20 -8 -23 10 -23 11 0 20 5 20 11 0 6 7
3 16 -5 8 -9 13 -24 10 -34 -10 -30 -219 -230 -246 -235 -14 -3 -54 -17 -89
-31 -36 -14 -72 -26 -82 -26 -24 0 -34 -19 -15 -26 9 -3 32 1 52 11 50 24 162
64 167 59 2 -2 70 64 152 147 l149 151 90 19 c58 13 109 18 141 14 30 -3 68 0
95 9 39 12 -107 14 -1083 15 -1022 2 -1131 1 -1153 -14 -17 -11 -23 -22 -19
-34 8 -25 -50 -38 -72 -16 -8 8 -25 15 -39 15 -21 0 -24 3 -18 25 l6 25 -151
0 -151 0 0 -24 c0 -18 -6 -25 -22 -28 -13 -2 -24 -11 -26 -22 -2 -10 -16 -29
-30 -42 l-27 -24 22 -19 23 -19 -29 -10 c-16 -6 -37 -22 -46 -36 -9 -14 -25
-28 -35 -31 -10 -3 -20 -14 -23 -25 -3 -11 -15 -20 -33 -22 -23 -2 -28 -7 -26
-23 2 -11 12 -29 22 -39 18 -19 18 -20 -6 -38 -13 -11 -24 -24 -24 -29 0 -5
-8 -19 -18 -30 -24 -25 -44 -18 -91 32 -20 20 -50 40 -68 44 -17 3 -37 13 -44
21 -28 33 -91 -5 -70 -44 6 -11 7 -22 4 -26 -11 -11 -49 -6 -69 9 -10 8 -27
15 -36 15 -12 0 -18 8 -18 25 0 17 -8 29 -25 37 -15 7 -25 19 -25 33 0 12 -10
31 -23 43 -21 19 -25 20 -50 7 -15 -8 -29 -10 -32 -4 -11 17 -43 9 -59 -16 -9
-14 -34 -36 -56 -50 -42 -26 -42 -24 -11 -83 10 -20 9 -24 -11 -31 -16 -6 -28
-4 -39 5 -26 23 -77 17 -103 -11 -20 -21 -26 -23 -37 -12 -8 7 -30 22 -49 34
-35 21 -35 21 -70 3 -46 -25 -53 -25 -46 4 4 18 -4 33 -40 69 -60 61 -80 67
-108 32 -19 -24 -27 -27 -58 -21 -27 5 -38 2 -52 -13 -26 -28 -46 -16 -42 26
2 19 8 39 15 46 14 14 15 57 1 57 -18 0 -10 27 12 42 20 14 21 18 10 43 -9 20
-10 31 -2 39 15 15 12 43 -5 50 -8 3 -15 17 -15 31 l0 25 -130 0 c-85 0 -129
-4 -128 -10 3 -11 -93 -49 -124 -50 -9 0 -21 13 -27 30 l-10 31 -701 -3 c-610
-3 -702 -5 -710 -18 -8 -12 -10 -12 -11 5 l0 20 -9 -20 -9 -20 -1 20 c-1 11
-4 15 -6 8 -3 -7 -1 -20 5 -30 8 -14 10 -15 11 -3 0 13 1 13 10 0 7 -11 10
-11 10 -2 0 7 5 10 10 7 6 -4 7 -12 3 -18 -4 -7 1 -5 12 3 17 14 17 13 11 -10
l-7 -25 16 25 15 25 -4 -33 c-4 -31 -3 -33 12 -18 12 10 22 12 32 6 14 -9 7
-14 -13 -11 -5 1 -6 -3 -2 -9 5 -8 12 -7 23 2 13 11 15 10 9 -4 -3 -10 -2 -20
2 -22 5 -3 8 3 7 14 -1 22 -46 68 -47 48 0 -7 -5 -2 -10 11 -11 27 3 52 16 30
5 -8 4 -10 -3 -5 -7 4 -12 3 -12 -1 0 -10 42 -38 52 -35 5 1 7 -4 5 -11 -1 -7
7 -12 19 -11 17 1 20 -3 16 -20 -4 -20 -4 -21 10 -2 15 19 16 19 29 -5 7 -13
12 -27 11 -31 -3 -12 30 -2 39 13 5 8 9 9 9 2 0 -7 9 -9 23 -5 20 5 21 4 8
-12 -8 -9 -16 -14 -18 -12 -3 2 -22 -1 -42 -9 -21 -7 -54 -13 -74 -13 -19 0
-53 -3 -74 -6 -34 -6 -44 -3 -85 29 -26 20 -54 48 -63 61 -14 22 -14 24 2 21
10 -1 23 -6 29 -9 6 -4 11 -1 11 7 0 8 -5 13 -11 12 -5 -1 -11 5 -12 13 0 8
-2 23 -2 32 -2 15 -31 17 -322 17 -176 1 -320 -2 -320 -7z m622 -42 c5 0 6 6
2 13 -4 6 -3 8 1 4 17 -15 13 -33 -8 -32 -14 1 -23 11 -28 31 -8 29 -8 29 8 7
8 -13 20 -23 25 -23z m121 22 c-5 -11 -7 -11 -14 0 -7 10 -9 11 -9 0 0 -7 -5
-10 -11 -6 -8 5 -8 8 0 14 20 12 39 7 34 -8z m63 -8 c1 -9 0 -13 -4 -10 -3 4
-7 14 -8 22 -1 9 0 13 4 10 3 -4 7 -14 8 -22z m-399 -8 c-3 -8 1 -20 8 -26 12
-10 17 -7 25 14 11 29 23 36 14 9 -5 -15 -3 -15 11 2 16 20 16 19 12 -6 -4
-17 -1 -26 9 -26 9 0 12 8 10 22 -3 14 1 22 10 22 9 0 10 -4 4 -12 -5 -6 -5
-16 0 -25 9 -14 11 -13 14 9 0 5 4 13 8 17 4 3 6 -3 3 -15 -2 -11 0 -21 6 -21
5 0 9 4 9 10 0 5 8 6 18 3 15 -6 16 -5 3 13 -11 14 -9 14 9 -3 13 -12 22 -24
19 -27 -2 -2 -31 -6 -64 -9 -33 -3 -94 -12 -136 -20 -42 -9 -118 -19 -170 -23
l-94 -6 25 22 c14 12 20 19 13 16 -6 -4 -14 -2 -18 4 -3 5 1 10 11 10 14 0 15
2 3 18 -13 15 -12 16 3 4 10 -8 19 -9 22 -3 9 13 39 7 44 -10 3 -11 1 -11 -7
1 -6 8 -11 10 -11 4 0 -6 6 -17 14 -23 12 -10 14 -7 12 18 -1 16 2 28 6 25 4
-3 8 -15 9 -27 0 -21 1 -21 8 -2 5 12 4 26 -3 35 -7 10 -3 9 10 -3 11 -9 24
-14 29 -10 4 5 5 2 1 -5 -4 -7 -13 -9 -19 -5 -7 4 -5 -1 2 -11 14 -17 16 -17
28 0 7 9 10 21 6 27 -3 6 -1 7 5 4 5 -4 8 -17 5 -30 -5 -22 -5 -22 11 -2 9 11
16 16 15 10 -3 -22 2 -29 11 -15 6 9 10 11 10 3 0 -7 7 -10 15 -7 8 4 15 10
15 16 0 5 -4 7 -9 4 -5 -4 -8 2 -6 11 2 10 4 21 4 26 1 4 4 7 7 7 3 0 4 -6 1
-14z m5818 4 c3 -5 1 -10 -4 -10 -6 0 -11 5 -11 10 0 6 2 10 4 10 3 0 8 -4 11
-10z m-5304 -77 c13 -16 12 -17 -3 -4 -10 7 -18 15 -18 17 0 8 8 3 21 -13z
m404 5 c3 -3 -34 -11 -82 -18 -48 -6 -97 -14 -108 -17 -11 -3 -22 -6 -25 -6
-3 0 -16 -4 -30 -9 -75 -30 -200 -64 -210 -58 -19 12 238 92 335 105 95 12
111 12 120 3z m105 6 c-37 -8 -88 -9 -84 -2 3 4 26 7 52 7 26 -1 40 -3 32 -5z
m-784 -40 c24 -20 44 -41 44 -46 0 -5 -4 -6 -10 -3 -17 10 -12 -9 21 -81 17
-38 49 -119 70 -181 46 -133 84 -221 107 -248 10 -11 28 -40 41 -65 13 -25 30
-52 37 -61 8 -8 14 -22 14 -29 0 -7 12 -47 26 -89 29 -84 30 -88 45 -186 6
-38 22 -120 35 -182 13 -62 24 -122 24 -134 0 -12 11 -41 24 -63 43 -74 73
-169 93 -294 l20 -123 -21 6 c-53 16 -89 23 -100 19 -7 -3 -46 11 -88 31 -42
19 -99 40 -126 46 -45 9 -50 13 -56 42 -3 18 -10 52 -16 77 -6 25 -14 68 -19
95 -5 28 -23 94 -39 147 -27 86 -39 148 -41 216 -1 12 -6 22 -12 22 -7 0 -9
-10 -7 -24 3 -14 2 -30 -3 -37 -10 -17 -23 52 -16 93 2 18 14 80 25 138 16 79
21 132 18 215 -2 61 1 133 6 162 8 45 5 62 -21 135 -41 118 -94 219 -141 271
-44 48 -106 74 -190 79 -25 1 -57 7 -71 12 -16 7 -63 9 -120 5 -60 -4 -96 -2
-101 5 -12 18 2 27 24 15 26 -14 117 -6 278 25 177 34 193 33 246 -10z m864
-47 c0 -4 28 -43 63 -85 34 -42 69 -92 76 -109 7 -18 22 -35 32 -38 22 -7 24
-16 8 -32 -9 -9 -3 -29 21 -79 41 -86 50 -146 44 -319 -5 -150 -22 -219 -51
-208 -12 5 -14 1 -7 -18 10 -31 9 -40 -11 -135 -10 -43 -18 -88 -19 -99 -2
-11 -6 -39 -10 -62 -10 -53 11 -153 36 -171 10 -7 18 -17 18 -22 0 -5 9 -35
21 -65 14 -39 30 -62 51 -75 32 -19 91 -103 115 -162 8 -20 23 -38 34 -41 13
-4 19 -14 19 -35 0 -22 9 -37 31 -55 l32 -25 -25 -33 c-38 -51 -104 -176 -132
-251 -33 -87 -65 -274 -73 -420 -4 -82 -9 -115 -17 -110 -6 3 -15 7 -21 8 -5
0 -15 2 -21 2 -7 1 -14 10 -17 20 -3 9 -13 37 -23 62 -9 25 -18 61 -19 80 -2
19 -5 46 -9 60 -3 14 -10 48 -16 75 -18 79 -48 147 -102 225 -38 56 -38 56
-27 114 6 33 19 75 30 95 10 20 19 42 19 49 0 7 10 32 22 55 36 69 58 139 57
182 -1 26 11 70 35 125 36 83 36 119 1 90 -13 -11 -15 -9 -15 10 0 13 -7 32
-16 42 -13 14 -14 21 -5 32 13 15 9 24 -136 275 -18 31 -33 63 -33 71 0 8 -21
31 -46 50 l-46 34 6 68 c3 38 14 86 25 108 16 33 18 58 16 159 -2 65 -8 134
-13 153 -34 109 -34 111 -17 204 9 49 15 94 14 99 -2 10 2 22 33 94 10 24 16
54 13 65 -5 16 2 12 25 -14 16 -19 30 -38 30 -43z m5380 2 c-7 -11 -14 -18
-17 -15 -3 3 0 12 7 21 18 21 23 19 10 -6z m-5195 -17 c-3 -3 -11 0 -18 7 -9
10 -8 11 6 5 10 -3 15 -9 12 -12z m-890 -12 c-3 -5 -19 -10 -36 -10 -16 0 -29
5 -29 10 0 6 16 10 36 10 21 0 33 -4 29 -10z m925 -5 c0 -5 4 -4 9 4 6 9 10
10 16 2 5 -9 10 -9 21 0 11 9 15 8 20 -5 3 -9 10 -16 16 -16 5 0 6 6 2 13 -6
9 -5 9 8 0 8 -7 17 -10 21 -7 5 5 2 -27 -3 -33 -2 -3 -5 -20 -9 -54 -1 -8 -6
-8 -16 1 -13 11 -14 10 -9 -4 10 -26 -12 -19 -38 12 -13 16 -45 41 -71 56 -26
16 -47 31 -47 35 0 11 80 7 80 -4z m-93 -16 c68 -25 102 -54 149 -126 32 -51
36 -53 77 -53 46 0 107 -17 107 -29 0 -4 -13 -6 -30 -3 -20 3 -30 0 -30 -8 0
-9 -8 -7 -22 6 -16 13 -19 14 -10 2 7 -9 15 -40 17 -69 3 -29 7 -61 11 -71 9
-30 -1 -21 -51 47 -57 78 -94 111 -135 120 -18 4 -38 18 -47 33 -20 33 -77
119 -99 150 -20 28 -10 28 63 1z m3973 6 c-7 -9 -15 -13 -19 -10 -3 3 1 10 9
15 21 14 24 12 10 -5z m-53 -27 c-3 -8 -6 -5 -6 6 -1 11 2 17 5 13 3 -3 4 -12
1 -19z m-24 -6 c3 8 6 8 6 2 1 -6 -6 -17 -14 -24 -8 -7 -15 -9 -15 -5 0 4 -7
2 -15 -5 -8 -7 -15 -11 -16 -9 -8 38 -7 40 7 28 13 -11 19 -5 15 15 -1 5 4 4
12 -3 12 -9 16 -9 20 1z m-3675 -27 c-3 -3 -9 2 -12 12 -6 14 -5 15 5 6 7 -7
10 -15 7 -18z m3574 3 c-5 -7 -12 -22 -15 -33 -5 -20 -5 -20 -6 1 0 11 4 25
11 32 16 16 23 15 10 0z m-55 -50 c-3 -8 -6 -5 -6 6 -1 11 2 17 5 13 3 -3 4
-12 1 -19z m-727 -53 c-7 -9 -15 -13 -17 -11 -6 6 20 36 26 30 2 -2 -2 -10 -9
-19z m-2405 -55 c-10 -11 -15 -23 -12 -27 4 -3 7 -1 7 7 0 10 4 10 18 -1 16
-13 16 -13 2 5 -13 18 -13 19 1 14 12 -5 15 -1 12 20 -2 21 -1 23 5 9 4 -10
12 -19 17 -19 6 0 16 -4 23 -10 9 -8 11 -7 7 5 -4 8 -1 18 6 23 7 4 10 3 6 -3
-4 -6 0 -16 8 -23 13 -11 14 -10 10 2 -4 9 0 15 8 15 9 0 12 -7 9 -21 -5 -19
-3 -19 17 4 12 14 19 18 15 10 -12 -23 -13 -39 -3 -46 5 -3 9 -2 8 3 -5 26 2
32 20 16 19 -16 18 -48 -2 -36 -6 4 -8 0 -4 -11 8 -21 -25 -56 -53 -56 -12 0
-20 7 -20 16 0 14 -7 15 -45 9 -25 -3 -62 -13 -81 -21 -33 -14 -38 -14 -55 2
-16 14 -17 20 -6 33 10 14 10 14 -5 3 -11 -9 -22 -11 -34 -4 -13 7 -11 10 14
15 19 4 33 14 37 27 5 16 10 19 20 10 19 -16 39 21 22 40 -8 9 -8 11 -1 7 7
-4 15 1 18 10 5 12 10 13 18 5 9 -9 7 -17 -7 -32z m60 31 c3 -5 2 -12 -3 -15
-5 -3 -9 1 -9 9 0 17 3 19 12 6z m-98 -53 c-3 -8 -6 -5 -6 6 -1 11 2 17 5 13
3 -3 4 -12 1 -19z m2250 -32 c44 -24 112 -65 151 -90 40 -25 83 -46 96 -46 51
0 73 -48 56 -121 -7 -27 -10 -55 -7 -63 3 -8 3 -17 -1 -20 -3 -4 -7 -12 -8
-19 -1 -7 -9 -46 -17 -87 -8 -41 -14 -94 -13 -118 2 -24 -1 -45 -6 -48 -4 -3
-8 -17 -7 -32 0 -15 -6 -52 -15 -82 -19 -68 -27 -145 -31 -280 -4 -115 -14
-283 -18 -286 -1 -1 -27 -5 -57 -9 -158 -19 -238 -41 -331 -92 -3 -2 -14 8
-23 22 -17 25 -16 28 9 71 14 24 36 51 49 59 29 19 102 149 113 200 l8 40 5
-50 c5 -47 6 -49 18 -27 8 14 14 68 16 145 2 67 0 111 -5 97 -9 -30 -9 -26
-13 70 -3 80 11 161 25 139 5 -8 10 1 14 25 9 45 -17 220 -44 297 -10 31 -24
89 -30 128 -6 40 -18 82 -25 94 -8 12 -18 39 -21 60 -4 20 -11 37 -15 37 -5 0
-71 -40 -147 -88 -76 -48 -144 -91 -150 -96 -7 -4 -13 -4 -13 1 1 18 259 188
310 204 40 12 44 11 127 -35z m-596 21 c-6 -8 -7 -18 -3 -22 4 -5 2 -5 -5 -1
-14 8 -6 36 9 36 7 0 6 -5 -1 -13z m195 -9 c-4 7 -2 12 8 12 8 0 18 -5 22 -12
5 -7 2 -8 -7 -3 -8 5 -11 4 -6 -1 5 -5 14 -9 20 -10 7 0 26 -7 43 -14 l32 -14
-75 -54 c-42 -29 -86 -58 -99 -64 -13 -6 -24 -15 -24 -20 0 -5 -8 -5 -17 1
-10 5 -38 7 -62 5 -35 -3 -48 0 -63 16 -10 11 -15 20 -10 20 5 0 15 14 22 31
l13 31 14 -24 14 -23 -5 23 c-4 20 -2 21 11 10 15 -12 15 -11 4 10 -7 12 -17
20 -23 16 -7 -4 -8 -2 -4 5 6 9 11 9 23 -1 23 -19 41 -18 36 2 -3 10 0 21 6
24 7 5 8 1 4 -11 -6 -16 -5 -17 12 -3 17 14 18 14 6 -10 -11 -24 -11 -24 3 -6
9 11 16 16 16 12 0 -5 7 -3 16 5 13 10 17 10 25 -2 8 -10 9 -8 4 9 -9 32 12
57 33 40 13 -10 14 -10 8 0z m2704 -28 c-7 -12 -9 -31 -7 -42 4 -16 3 -17 -9
-7 -18 15 -18 29 2 57 20 28 30 22 14 -8z m-2930 16 c0 -2 -7 -7 -16 -10 -8
-3 -12 -2 -9 4 6 10 25 14 25 6z m71 -21 c3 2 6 -5 6 -17 2 -21 2 -21 -13 1
-13 19 -18 20 -32 9 -15 -12 -16 -11 -3 5 9 12 17 14 26 7 6 -5 14 -8 16 -5z
m89 0 c-7 -9 -15 -13 -19 -10 -3 3 1 10 9 15 21 14 24 12 10 -5z m-2010 -15
c0 -5 -2 -10 -4 -10 -3 0 -8 5 -11 10 -3 6 -1 10 4 10 6 0 11 -4 11 -10z m974
2 c3 -5 -1 -9 -9 -9 -8 0 -12 4 -9 9 3 4 7 8 9 8 2 0 6 -4 9 -8z m-637 -38 c4
-11 -68 -34 -104 -34 -15 0 -14 4 7 20 37 29 90 36 97 14z m616 3 c4 3 7 1 7
-5 0 -7 -10 -13 -22 -13 -60 -4 -100 -1 -110 9 -7 7 -5 10 8 9 11 -1 22 -6 26
-12 5 -6 8 -6 8 2 0 6 9 10 20 8 11 -2 22 1 26 6 4 7 10 6 18 0 7 -6 16 -8 19
-4z m-163 -12 c17 -1 60 -24 45 -25 -6 0 -16 5 -23 12 -9 9 -12 9 -12 -2 0
-13 -2 -13 -10 0 -8 13 -10 13 -10 -1 0 -10 -8 -15 -22 -13 -13 1 -26 3 -30 3
-5 1 -8 9 -8 18 0 15 2 14 15 -3 11 -15 15 -16 16 -4 1 8 1 19 0 23 -1 5 4 5
11 0 7 -4 20 -8 28 -8z m225 3 c5 4 5 1 1 -6 -6 -9 -11 -10 -20 -3 -7 6 -17 7
-21 3 -5 -4 -5 -1 -1 6 6 9 11 10 20 3 7 -6 17 -7 21 -3z m2341 -1 c4 -4 0 -7
-9 -7 -9 0 -18 4 -21 9 -7 10 20 9 30 -2z m-2657 -38 c-20 -13 -31 -11 -26 4
2 6 10 11 16 10 6 -2 11 3 12 10 0 8 2 8 6 -2 3 -7 -1 -17 -8 -22z m453 -24
c10 2 16 1 14 -4 -3 -4 -1 -13 5 -21 7 -13 9 -13 9 0 0 13 1 13 10 0 8 -13 10
-13 10 -1 0 11 4 10 16 -5 15 -19 16 -19 9 1 -5 16 -4 17 6 8 8 -8 18 -9 30
-3 12 7 20 6 24 0 4 -6 10 -8 15 -5 5 3 11 1 14 -4 3 -4 -11 -11 -32 -14 -79
-13 -108 -19 -125 -29 -16 -8 -18 -7 -13 9 6 20 -49 97 -63 88 -5 -2 -17 2
-27 10 -19 15 -19 15 0 8 15 -5 17 -3 11 8 -5 8 8 0 29 -18 22 -18 47 -30 58
-28z m-723 11 c51 -37 98 -48 151 -36 118 29 217 43 300 45 52 1 100 0 106 -2
7 -3 14 -44 18 -101 4 -53 14 -135 23 -182 9 -47 15 -95 14 -108 0 -13 5 -33
13 -45 8 -12 26 -69 40 -127 15 -58 34 -129 42 -159 17 -59 27 -116 49 -291 8
-63 18 -125 21 -138 5 -16 0 -30 -14 -45 -11 -12 -23 -31 -26 -43 -6 -21 -9
-20 -89 20 -68 34 -165 67 -247 83 -8 2 -70 5 -138 7 -67 2 -126 6 -129 10 -4
3 -10 41 -13 84 -10 112 -49 289 -76 350 -16 34 -24 71 -24 107 0 29 -7 87
-16 127 -8 40 -19 100 -23 133 -5 33 -16 107 -25 165 -27 178 -27 180 -15 180
6 0 32 -15 58 -34z m4298 16 c-10 -10 -18 -27 -18 -38 -1 -18 -2 -18 -6 -1 -4
16 21 57 35 57 3 0 -2 -8 -11 -18z m-2922 -54 c13 -11 22 -24 20 -29 -3 -4 4
-5 15 -2 11 3 20 0 20 -6 0 -8 10 -6 31 4 17 9 42 15 57 13 l27 -3 -29 -15
c-24 -12 -29 -22 -31 -55 -2 -22 -6 -60 -10 -85 -4 -25 -9 -92 -11 -150 -2
-58 -6 -118 -8 -135 -3 -16 -7 -48 -10 -70 -3 -22 -8 -51 -10 -65 -3 -14 -8
-49 -12 -79 -3 -30 -10 -64 -14 -77 -5 -12 -6 -25 -2 -28 9 -9 12 -37 3 -32
-4 3 -12 2 -17 -2 -20 -13 -97 -136 -100 -158 -1 -12 -12 -32 -24 -44 -13 -13
-20 -30 -17 -40 3 -14 0 -17 -13 -15 -22 4 -40 -57 -45 -158 -2 -51 -9 -78
-31 -114 -15 -26 -28 -56 -29 -65 0 -19 -82 -82 -90 -69 -3 5 -7 103 -10 217
-2 115 -7 223 -10 239 -4 17 -8 53 -10 80 -6 102 -28 251 -52 350 -4 17 -6 60
-5 97 2 37 -2 76 -8 87 -11 22 -44 167 -61 274 -7 39 -16 67 -23 67 -7 0 -33
-7 -59 -16 -51 -17 -71 -16 -59 3 12 19 297 83 377 84 39 0 95 4 125 8 30 3
65 7 78 8 12 2 33 -7 47 -19z m-450 -8 c-3 -5 -10 -10 -16 -10 -5 0 -9 5 -9
10 0 6 7 10 16 10 8 0 12 -4 9 -10z m660 -10 c3 -6 -4 -10 -17 -10 -18 0 -20
2 -8 10 19 12 18 12 25 0z m-955 -24 c0 -2 -8 -10 -17 -17 -16 -13 -17 -12 -4
4 13 16 21 21 21 13z m41 -19 c-10 -9 -11 -8 -5 6 3 10 9 15 12 12 3 -3 0 -11
-7 -18z m-25 -33 c-5 -13 -9 -14 -21 -4 -15 13 -10 35 6 25 5 -4 9 0 10 7 0
10 2 10 6 0 3 -7 2 -20 -1 -28z m-1081 -134 c15 -58 37 -134 50 -170 12 -36
25 -86 29 -112 4 -26 20 -86 36 -133 16 -47 27 -85 25 -85 -2 0 1 -15 7 -32 5
-18 16 -62 23 -98 15 -73 18 -87 35 -149 6 -24 17 -75 25 -113 13 -68 13 -69
-11 -84 -25 -17 -44 -12 -44 11 0 7 -12 23 -27 35 -21 16 -35 20 -60 15 -32
-6 -34 -4 -53 39 -10 25 -24 73 -30 108 -7 34 -17 72 -23 83 -6 11 -12 88 -13
174 -2 90 -9 169 -16 190 -15 42 -18 434 -4 466 8 18 9 17 16 -10 4 -16 20
-77 35 -135z m2780 -79 c1 -17 -1 -28 -6 -25 -5 3 -7 10 -4 15 4 5 2 9 -3 9
-6 0 -8 9 -5 20 7 27 15 19 18 -19z m945 -118 c0 -5 -5 -15 -10 -23 -7 -12 -9
-10 -7 8 1 19 17 33 17 15z m-940 -23 c-8 -15 -8 -20 2 -20 8 0 9 -3 3 -8 -5
-4 -10 -32 -10 -62 1 -54 -11 -98 -23 -85 -3 3 -7 29 -8 58 -1 29 -4 64 -7 79
-6 30 13 58 39 58 12 0 12 -4 4 -20z m973 -72 c-3 -18 -10 -37 -15 -43 -6 -6
-7 -5 -4 5 2 8 7 27 10 43 9 38 17 34 9 -5z m-2405 -14 c-1 -5 -9 -9 -16 -10
-10 -2 -11 1 -1 12 12 14 24 13 17 -2z m1387 -40 c0 -24 -3 -44 -7 -44 -3 0
-6 22 -5 49 2 61 11 57 12 -5z m-2331 -96 c-5 -8 -1 -9 12 -4 10 4 15 4 11 0
-4 -4 -3 -12 3 -18 6 -8 2 -12 -13 -13 -15 -2 -18 0 -8 6 10 7 11 9 1 13 -8 2
-14 12 -16 21 -1 9 2 15 7 11 5 -3 6 -10 3 -16z m-1719 -35 c4 -58 3 -57 23
-42 14 11 15 11 5 -1 -18 -20 -17 -74 1 -67 19 8 14 -17 -8 -42 -18 -19 -17
-23 4 -113 12 -51 26 -104 31 -117 5 -13 8 -25 7 -26 -2 -1 -58 -5 -125 -9
l-123 -7 0 25 c0 37 47 180 68 207 23 30 52 88 52 105 0 7 6 25 14 41 8 15 19
41 26 57 12 33 22 29 25 -11z m1743 -90 c-1 -42 -3 -50 -7 -28 -6 28 -3 85 4
85 2 0 3 -26 3 -57z m1445 -3 c3 -19 8 -46 11 -58 4 -20 3 -22 -9 -12 -8 6
-11 19 -8 27 5 12 3 14 -7 8 -9 -6 -11 -4 -4 6 4 8 7 27 5 44 -4 41 6 29 12
-15z m-484 16 c9 -11 9 -16 -1 -22 -7 -4 -10 -4 -6 1 4 4 3 14 -3 22 -6 7 -9
13 -6 13 2 0 10 -6 16 -14z m-19 -27 c0 -11 4 -18 8 -15 4 2 9 -5 9 -17 2 -17
0 -19 -7 -7 -8 12 -10 13 -10 1 0 -8 -3 -12 -6 -8 -9 9 -10 76 -2 71 5 -3 8
-14 8 -25z m-917 -4 c4 -8 3 -16 -1 -19 -4 -3 -9 4 -9 15 -2 23 3 25 10 4z
m10 -58 c7 3 5 -2 -4 -13 -9 -10 -19 -26 -22 -34 -5 -13 -5 0 3 60 2 11 4 10
7 -3 3 -10 10 -14 16 -10z m5 -37 c-7 -10 -14 -17 -17 -15 -4 4 18 35 25 35 2
0 -1 -9 -8 -20z m-1701 -22 c12 -14 13 -17 2 -13 -10 4 -14 -3 -15 -24 -1 -23
3 -29 17 -26 12 3 19 -2 19 -12 0 -13 -2 -14 -17 -2 -15 12 -16 12 -8 -1 5 -8
18 -21 28 -29 19 -14 19 -15 1 -28 -15 -11 -16 -15 -4 -26 10 -10 11 -9 5 3
-8 13 -6 13 7 2 16 -13 14 -42 -2 -42 -10 0 -41 65 -44 94 -1 12 -6 27 -10 34
-4 7 -4 17 -1 22 3 6 0 10 -7 10 -11 0 -11 2 0 9 10 6 10 10 -3 21 -8 7 -15
16 -15 20 0 14 30 6 47 -12z m1650 7 c0 -8 -4 -12 -9 -9 -5 3 -6 10 -3 15 9
13 12 11 12 -6z m3273 5 c0 -5 -2 -10 -4 -10 -3 0 -8 5 -11 10 -3 6 -1 10 4
10 6 0 11 -4 11 -10z m-3190 -30 c0 -10 -5 -22 -10 -25 -13 -8 -24 20 -16 41
8 20 26 9 26 -16z m1454 8 c3 -13 8 -54 11 -93 2 -38 8 -104 11 -145 4 -46 1
-98 -6 -135 -7 -33 -15 -96 -17 -140 -2 -44 -14 -123 -27 -175 -36 -142 -44
-213 -51 -460 -4 -124 -8 -238 -10 -253 -5 -43 -15 -45 -15 -4 0 31 -4 36 -29
42 -27 6 -30 11 -40 69 -6 34 -11 74 -11 89 0 32 -17 45 -22 15 -6 -43 -27
-31 -34 21 -4 28 -10 51 -14 51 -4 0 -10 -27 -14 -60 -4 -33 -11 -60 -16 -60
-6 0 -10 -9 -10 -21 0 -14 -5 -19 -14 -16 -14 5 -25 -42 -27 -117 -1 -30 -2
-29 -11 9 -17 70 -18 72 -28 55 -7 -10 -10 21 -11 90 0 58 -2 114 -5 125 -2
11 -7 114 -10 228 -6 160 -10 204 -18 189 -7 -14 -9 -61 -4 -144 4 -68 10
-239 14 -380 6 -230 5 -258 -10 -273 -15 -15 -16 -3 -16 162 -1 282 -9 461
-27 562 l-17 93 44 40 45 39 -39 -16 c-54 -21 -64 -19 -59 9 9 43 62 76 89 54
11 -8 25 20 29 57 1 6 15 40 32 76 28 60 34 67 67 73 20 4 36 11 36 17 0 6 -6
7 -12 3 -8 -5 -7 0 2 11 14 17 15 17 18 1 3 -14 8 -12 28 11 30 35 50 101 35
116 -7 7 -9 3 -6 -13 3 -18 2 -21 -7 -12 -9 9 -8 18 1 39 13 26 14 27 21 8 l8
-20 7 20 c5 11 17 30 28 43 11 12 17 22 12 22 -5 0 0 10 11 23 11 12 31 39 45
59 28 44 37 47 43 16z m-1498 -14 c-1 -8 -6 -17 -12 -21 -5 -4 -6 -4 -2 1 4 5
3 14 -2 21 -7 8 -5 12 4 12 8 0 13 -6 12 -13z m2891 -6 c-3 -8 -6 -5 -6 6 -1
11 2 17 5 13 3 -3 4 -12 1 -19z m-1593 -51 c1 -8 7 -21 13 -28 8 -11 7 -18 -5
-28 -14 -13 -15 -12 -10 7 4 12 2 25 -3 28 -5 3 -9 15 -9 26 0 23 10 19 14 -5z
m-40 -31 c-3 -9 -10 -16 -15 -16 -5 0 -4 9 3 20 14 22 21 20 12 -4z m-1229
-23 c-2 -14 -1 -22 3 -18 4 3 8 11 8 16 4 30 6 32 13 14 10 -23 -6 -48 -24
-41 -7 2 -17 0 -22 -5 -6 -6 -10 -4 -10 5 0 8 5 14 11 13 13 -3 15 24 3 41 -7
9 -6 11 7 6 11 -4 15 -14 11 -31z m3182 5 c-3 -8 -6 -5 -6 6 -1 11 2 17 5 13
3 -3 4 -12 1 -19z m-3227 -27 c0 -10 -6 -21 -14 -24 -11 -4 -11 -1 -2 19 13
29 16 30 16 5z m-790 -61 c0 -5 -5 -10 -11 -10 -5 0 -7 5 -4 10 3 6 8 10 11
10 2 0 4 -4 4 -10z m3221 -11 c148 -19 286 -60 304 -90 4 -5 -1 -17 -11 -26
-17 -14 -17 -14 7 0 28 17 62 6 53 -17 -6 -16 21 -40 36 -31 8 5 8 10 0 20
-17 20 7 52 44 59 39 8 77 -19 90 -63 7 -25 6 -35 -5 -42 -8 -5 -10 -9 -6 -9
4 0 3 -9 -3 -20 -6 -11 -16 -17 -25 -14 -9 4 -15 1 -15 -7 0 -8 -6 -5 -16 7
-8 10 -13 14 -10 8 3 -7 -3 -14 -14 -17 -16 -4 -18 -2 -10 13 5 10 7 20 2 23
-4 2 0 2 8 -1 40 -13 65 -7 68 17 4 29 -20 51 -56 51 -24 0 -25 1 -7 20 10 11
14 20 9 20 -13 0 -36 -39 -29 -50 4 -6 1 -10 -6 -10 -8 0 -7 -5 2 -17 10 -11
10 -14 2 -9 -8 4 -13 2 -13 -6 0 -10 -3 -9 -10 2 -5 8 -12 12 -15 9 -9 -9 6
-40 16 -33 5 3 9 0 9 -5 0 -6 -4 -11 -9 -11 -5 0 -11 -6 -14 -12 -2 -7 -3 -5
-2 4 2 9 -4 26 -12 38 -11 16 -18 18 -28 10 -11 -10 -13 -8 -10 9 2 12 0 21
-6 21 -5 0 -9 -6 -9 -12 0 -7 -7 -2 -16 10 -15 22 -34 22 -34 -1 0 -8 3 -8 9
1 7 11 9 11 14 0 3 -10 -3 -15 -21 -15 -91 -1 -112 -4 -110 -14 2 -6 -4 -14
-12 -16 -12 -4 -12 -3 -2 5 11 7 11 10 -2 15 -17 7 -22 37 -6 37 6 0 10 7 10
16 0 9 5 12 13 8 9 -6 9 -5 0 8 -7 8 -9 19 -5 23 4 5 2 5 -5 2 -6 -4 -14 -1
-16 5 -4 9 -6 10 -6 1 -1 -6 3 -14 9 -18 5 -3 6 -13 2 -23 -5 -13 -9 -7 -19
23 l-12 40 3 -60 c2 -33 1 -46 -2 -30 l-5 30 -6 -30 c-4 -17 -13 -30 -21 -30
-8 -1 -14 -7 -12 -14 1 -7 -1 -10 -6 -7 -14 9 -9 91 6 92 6 1 17 2 22 3 6 0
10 8 10 16 0 8 -4 15 -10 15 -5 0 -9 -3 -7 -7 1 -5 -1 -9 -5 -10 -5 -2 -7 -1
-5 1 1 2 -6 13 -15 23 -13 14 -15 22 -7 30 9 9 7 11 -7 8 -11 -2 -21 -4 -23
-4 -2 -1 3 -9 12 -19 10 -10 14 -22 10 -26 -4 -3 -7 -26 -7 -49 1 -32 0 -34
-3 -9 -2 17 -9 32 -14 32 -6 0 -5 9 2 23 12 21 11 21 -14 -3 -16 -15 -26 -35
-26 -50 1 -25 1 -25 7 -2 11 36 27 31 29 -8 l1 -35 -7 35 c-6 32 -7 33 -12 10
-6 -32 0 -62 12 -55 5 3 6 -1 3 -9 -6 -16 -17 -20 -43 -17 -7 2 -10 -3 -6 -9
4 -7 -2 -9 -19 -6 -17 3 -24 1 -20 -6 3 -5 23 -8 44 -6 21 2 36 0 34 -4 -4 -7
47 -12 93 -11 7 1 10 -3 7 -8 -3 -5 2 -9 11 -9 10 0 13 5 9 12 -4 7 -3 8 5 4
6 -4 8 -12 5 -18 -5 -7 -1 -9 9 -5 10 4 17 2 17 -4 0 -6 9 -9 20 -6 11 3 18 1
14 -4 -8 -13 10 -11 26 4 12 10 12 9 1 -5 -9 -12 -10 -18 -2 -18 6 0 11 -4 11
-9 0 -6 -24 1 -53 14 -52 24 -187 55 -239 55 -30 0 -39 25 -16 48 9 9 8 22 -3
54 -8 24 -14 48 -14 53 0 6 -11 12 -25 13 -20 3 -23 1 -12 -9 18 -19 15 -26
-11 -31 -20 -4 -23 -1 -19 22 3 19 -1 29 -13 33 -9 4 -13 3 -10 -2 3 -5 0 -13
-6 -16 -5 -4 -8 -14 -4 -22 3 -10 -3 -22 -15 -30 -11 -8 -20 -25 -20 -39 0
-13 -5 -24 -11 -24 -5 0 -7 5 -3 12 5 7 3 8 -5 4 -7 -5 -10 -15 -6 -23 4 -13
3 -14 -10 -3 -13 11 -14 15 -2 29 8 9 12 22 9 30 -3 9 0 11 7 7 6 -4 11 -4 10
1 -4 23 3 31 22 28 12 -3 19 -1 15 2 -15 15 -36 10 -51 -13 -9 -14 -13 -29
-10 -34 3 -5 1 -11 -5 -15 -5 -3 -11 4 -11 17 l-2 23 -4 -23 c-2 -12 -8 -20
-13 -17 -5 3 -6 15 -1 28 7 19 5 23 -10 24 -10 1 -19 -3 -19 -8 0 -6 5 -7 10
-4 6 3 10 -1 10 -10 0 -8 -7 -18 -15 -21 -8 -4 -15 -12 -15 -19 0 -7 -6 -15
-13 -18 -8 -3 -14 1 -14 9 0 7 3 11 7 9 4 -2 7 2 7 10 0 8 -5 11 -11 7 -23
-14 -38 -11 -33 9 6 21 0 23 -22 10 -8 -5 -12 -18 -8 -30 4 -18 2 -19 -14 -10
-10 5 -19 12 -19 15 0 3 5 2 10 -1 6 -3 10 1 10 10 0 13 -4 14 -21 5 -11 -7
-18 -14 -15 -17 7 -7 -13 -33 -25 -33 -5 0 -9 12 -10 28 0 15 -3 21 -6 15 -2
-7 -9 -13 -14 -13 -4 0 -6 7 -3 15 4 8 2 15 -3 15 -12 0 -13 -33 -2 -40 5 -3
0 -11 -11 -17 -17 -11 -18 -10 -14 13 3 19 1 24 -8 18 -10 -5 -11 -4 0 7 19
21 15 26 -28 33 -21 3 -43 14 -49 24 -9 15 -10 15 -8 -5 0 -12 4 -20 8 -17 4
2 11 -1 15 -7 5 -8 -1 -10 -19 -7 -20 4 -24 2 -19 -11 3 -9 1 -13 -3 -8 -5 4
-19 0 -31 -8 -24 -15 -36 -8 -41 25 -1 8 -7 16 -13 18 -5 2 -8 8 -4 13 3 5 0
9 -5 9 -15 0 -14 -5 9 -50 11 -22 20 -46 20 -54 0 -9 -7 -13 -20 -11 -11 2
-20 0 -20 -6 0 -5 -9 -18 -21 -30 -25 -25 -31 -49 -16 -66 5 -7 6 -13 2 -13
-4 0 -1 -8 6 -17 13 -16 12 -17 -3 -4 -10 7 -15 17 -12 22 3 5 -1 9 -9 9 -10
0 -13 -7 -10 -19 3 -12 -3 -26 -16 -37 -12 -10 -21 -24 -21 -30 0 -6 -7 -17
-15 -24 -8 -7 -15 -9 -15 -5 0 22 89 183 118 214 27 28 32 39 23 51 -64 86
-36 160 61 160 23 0 41 -10 68 -38 l36 -39 40 28 c101 70 363 106 575 78z
m-2424 -25 c33 -9 23 -62 -19 -96 -40 -34 -63 -35 -83 -4 -22 33 -10 70 28 89
36 18 44 19 74 11z m-2078 -67 c16 -20 5 -59 -25 -85 -55 -48 -136 4 -91 60
29 36 94 50 116 25z m1749 -4 c-4 -22 -48 -31 -48 -10 0 19 10 27 32 27 13 0
18 -6 16 -17z m150 9 c14 -9 6 -42 -12 -54 -12 -8 -36 9 -36 26 0 12 20 36 30
36 3 0 11 -4 18 -8z m2649 -7 c0 -8 -4 -12 -9 -9 -5 3 -6 10 -3 15 9 13 12 11
12 -6z m-1647 -17 c23 -25 12 -35 -19 -18 -21 11 -29 40 -11 40 5 0 19 -10 30
-22z m2420 -8 c0 -5 -2 -10 -4 -10 -3 0 -8 5 -11 10 -3 6 -1 10 4 10 6 0 11
-4 11 -10z m-3015 -21 c-4 -5 -13 -9 -22 -9 -13 0 -13 3 -3 15 13 15 35 11 25
-6z m-2585 1 c0 -12 -35 -31 -44 -23 -8 9 14 33 30 33 8 0 14 -4 14 -10z
m2640 0 c0 -5 -4 -10 -10 -10 -5 0 -10 5 -10 10 0 6 5 10 10 10 6 0 10 -4 10
-10z m1535 -28 c-3 -3 -11 0 -18 7 -9 10 -8 11 6 5 10 -3 15 -9 12 -12z m425
-27 c-11 -10 -19 -11 -30 -4 -13 8 -12 11 4 24 26 19 47 2 26 -20z m74 -5
c-14 -14 -39 14 -29 31 5 8 12 6 23 -5 11 -11 13 -19 6 -26z m570 34 c16 -6
23 -34 8 -34 -10 0 -32 22 -32 32 0 10 3 10 24 2z m-4142 -19 c0 -5 -5 -11
-11 -13 -6 -2 -11 4 -11 13 0 9 5 15 11 13 6 -2 11 -8 11 -13z m3267 -25 c0
-10 -3 -8 -9 5 -12 27 -12 43 0 25 5 -8 9 -22 9 -30z m3023 18 c-7 -7 -12 -8
-12 -2 0 14 12 26 19 19 2 -3 -1 -11 -7 -17z m-7297 -8 c0 -22 -29 -18 -33 3
-3 14 1 18 15 15 10 -2 18 -10 18 -18z m4386 5 c3 2 5 -4 5 -15 0 -10 -4 -18
-9 -17 -5 1 -11 -3 -14 -9 -2 -7 6 -10 19 -9 13 1 32 -1 43 -6 17 -6 15 -8
-10 -8 -16 -1 -48 -4 -70 -6 -30 -4 -35 -3 -19 4 22 10 40 41 25 41 -8 0 -8 8
-2 39 1 2 7 -2 14 -8 8 -6 16 -9 18 -6z m-94 -27 c-3 -7 -5 -2 -5 12 0 14 2
19 5 13 2 -7 2 -19 0 -25z m414 9 c-10 -9 -11 -8 -5 6 3 10 9 15 12 12 3 -3 0
-11 -7 -18z m161 11 c-7 -7 -12 -17 -12 -22 1 -6 9 -1 19 11 16 19 20 20 25 7
3 -8 2 -12 -3 -9 -6 3 -14 -3 -20 -12 -8 -14 -12 -15 -22 -6 -10 10 -9 15 1
28 7 8 15 15 18 15 3 0 1 -5 -6 -12z m1102 -3 c-4 -8 -10 -15 -15 -15 -5 0 -9
7 -9 15 0 8 7 15 15 15 9 0 12 -6 9 -15z m-1439 -14 c-3 -6 -11 -11 -17 -11
-6 0 -6 6 2 15 14 17 26 13 15 -4z m249 3 c3 -8 2 -12 -4 -9 -6 3 -10 10 -10
16 0 14 7 11 14 -7z m-2199 -1 l47 -6 -4 -96 c-4 -93 -33 -215 -49 -205 -4 2
-11 35 -14 72 -4 37 -11 74 -15 82 -9 16 -12 6 -25 -75 -4 -22 -20 -82 -37
-133 -34 -106 -39 -107 -84 -16 -31 64 -55 222 -47 313 l6 60 36 4 c66 7 138
7 186 0z m1415 -3 c-8 -5 -19 -10 -25 -10 -5 0 -3 5 5 10 8 5 20 10 25 10 6 0
3 -5 -5 -10z m230 6 c0 -2 -7 -7 -16 -10 -8 -3 -12 -2 -9 4 6 10 25 14 25 6z
m541 -23 c13 -16 12 -17 -3 -4 -17 13 -22 21 -14 21 2 0 10 -8 17 -17z m275
-5 c0 -10 -1 -18 -3 -18 -1 0 -7 8 -12 18 -7 13 -6 19 2 19 7 0 13 -9 13 -19z
m-2706 3 c0 -5 -7 -14 -16 -21 -8 -8 -41 -56 -72 -109 l-57 -95 -7 40 c-4 21
-4 65 -1 97 l6 57 61 19 c69 22 86 25 86 12z m343 -25 c-1 -16 6 -35 17 -46
33 -33 26 -63 -19 -81 l-39 -17 5 57 c3 31 12 64 21 74 13 14 13 17 1 18 -12
0 -12 2 0 6 11 5 11 7 0 15 -11 8 -11 9 1 5 9 -2 14 -14 13 -31z m1823 21 c4
-4 0 -7 -9 -7 -9 0 -18 4 -21 9 -7 10 20 9 30 -2z m414 6 c-8 -3 -21 -10 -28
-16 -9 -7 -11 -6 -6 7 3 9 16 16 28 15 14 0 16 -2 6 -6z m1649 -19 c-9 -11
-15 -12 -23 -4 -8 8 -7 13 4 20 20 12 33 1 19 -16z m71 -3 c0 -4 -3 -11 -7
-14 -9 -9 -33 12 -33 30 0 11 4 11 20 3 11 -6 20 -14 20 -19z m-3848 -14 c27
-12 48 -28 48 -36 0 -19 -53 -151 -61 -151 -4 0 -36 98 -66 204 -6 21 -3 21
79 -17z m1306 8 c-3 -3 -9 2 -12 12 -6 14 -5 15 5 6 7 -7 10 -15 7 -18z m475
18 c-7 -2 -19 -2 -25 0 -7 3 -2 5 12 5 14 0 19 -2 13 -5z m272 -5 c5 4 5 1 1
-6 -6 -10 -11 -10 -22 -1 -8 6 -14 14 -14 16 0 3 6 0 13 -6 8 -6 18 -7 22 -3z
m142 6 c-3 -3 -12 -4 -19 -1 -8 3 -5 6 6 6 11 1 17 -2 13 -5z m2221 -6 c16
-16 15 -28 -3 -28 -8 0 -15 2 -15 4 0 2 -3 11 -6 20 -7 19 7 21 24 4z m-3258
-7 c0 -14 -29 -21 -36 -9 -4 6 -3 8 4 4 6 -3 13 -2 17 4 8 12 15 13 15 1z
m360 -12 c0 -5 -7 -9 -15 -9 -15 0 -20 12 -9 23 8 8 24 -1 24 -14z m605 12
c-3 -5 -1 -12 5 -16 5 -3 10 -11 10 -18 0 -6 -6 -2 -14 8 -13 18 -13 35 0 35
3 0 3 -4 -1 -9z m334 -78 c11 -23 30 -66 42 -95 l21 -53 -24 23 c-14 12 -31
22 -39 22 -8 0 -10 3 -4 8 11 8 12 28 1 57 -5 11 -10 27 -14 35 -3 8 -4 19 -3
23 0 4 -6 10 -14 13 -8 3 -12 11 -8 17 3 6 1 7 -6 3 -6 -4 -9 -11 -6 -15 2 -5
-4 -16 -14 -25 -13 -12 -21 -14 -26 -6 -4 6 -1 9 7 8 8 -2 13 6 12 20 -1 12 3
22 7 22 5 0 9 7 9 16 0 22 29 -14 59 -73z m-302 55 c-3 -8 -6 -5 -6 6 -1 11 2
17 5 13 3 -3 4 -12 1 -19z m30 15 c-4 -3 -1 -13 6 -22 11 -14 10 -14 -5 -2
-16 12 -16 31 -1 31 4 0 3 -3 0 -7z m55 -4 c2 -2 1 -3 -1 -2 -2 2 -10 -5 -18
-15 -12 -16 -13 -16 -6 2 5 14 3 17 -7 11 -8 -5 -11 -4 -7 3 7 10 33 11 39 1z
m-4672 -8 c0 -14 -18 -23 -30 -16 -6 4 -8 11 -5 16 8 12 35 12 35 0z m3910 -3
c0 -11 -12 -10 -30 2 -12 7 -10 9 8 7 12 0 22 -5 22 -9z m-3856 -14 c4 -10 1
-14 -6 -12 -15 5 -23 28 -10 28 5 0 13 -7 16 -16z m4085 -31 c-60 -55 -154
-112 -184 -113 -12 0 -27 6 -34 13 -11 10 -12 8 -7 -9 6 -20 0 -24 -61 -42
-37 -12 -69 -20 -70 -18 -2 1 23 24 55 49 63 53 197 121 219 113 8 -3 11 -1 8
4 -3 6 -2 10 4 10 5 0 16 3 25 6 9 3 16 1 16 -6 0 -6 -4 -9 -9 -5 -5 3 -12 1
-15 -4 -7 -10 9 -9 36 4 10 4 15 11 12 16 -5 8 28 27 50 28 4 1 -16 -20 -45
-46z m-689 24 c0 -7 -7 -22 -15 -33 -14 -18 -14 -18 -15 7 0 14 3 29 7 32 11
11 23 8 23 -6z m78 -6 c-7 -9 -13 -18 -15 -20 -1 -2 -1 5 0 16 0 11 7 20 14
20 10 0 10 -4 1 -16z m341 15 c-2 -2 -15 -9 -29 -15 -24 -11 -24 -11 -6 3 16
13 49 24 35 12z m-2111 -28 c-83 -129 -168 -311 -168 -360 -1 -21 -1 -22 -11
-5 -12 21 -14 141 -4 210 8 51 48 96 130 145 61 37 72 39 53 10z m215 -26 c5
-40 4 -42 -16 -36 -37 11 -40 21 -17 54 12 17 23 30 25 28 1 -2 5 -22 8 -46z
m1800 7 c-6 -6 -19 -9 -29 -6 -15 4 -14 5 5 6 18 1 22 5 16 19 -5 14 -4 15 6
5 10 -10 10 -16 2 -24z m1074 11 c1 -13 -2 -18 -9 -14 -7 4 -8 2 -4 -5 6 -9
11 -9 22 0 11 9 14 8 14 -8 0 -16 -5 -19 -27 -16 -26 3 -27 3 -5 -6 31 -14 28
-23 -4 -11 -14 6 -31 7 -37 4 -7 -3 -1 4 13 15 14 11 21 21 17 21 -7 0 9 40
16 40 2 0 3 -9 4 -20z m-3023 -187 c3 -3 9 3 13 13 15 41 65 114 78 114 32 0
67 -45 72 -94 5 -40 3 -47 -8 -40 -17 10 -49 13 -54 4 -2 -4 11 -14 30 -23 26
-12 35 -13 36 -4 0 6 7 -3 15 -21 8 -18 33 -60 56 -94 48 -70 40 -79 89 90
l34 112 11 -60 c17 -93 20 -91 64 35 17 49 43 73 97 89 16 5 23 2 26 -11 3
-10 10 -39 17 -65 7 -27 15 -48 19 -48 3 0 17 29 29 65 15 40 29 65 38 65 9 0
13 4 10 9 -4 5 4 7 16 3 21 -5 21 -6 2 -13 -18 -7 -17 -8 5 -15 18 -5 36 -34
77 -119 53 -111 54 -115 60 -226 8 -164 -8 -374 -32 -400 -22 -24 -101 -63
-169 -83 -127 -39 -389 -44 -542 -12 -158 34 -279 121 -342 247 -30 60 -31 67
-31 191 0 126 11 167 24 88 3 -22 10 -40 14 -40 5 0 14 24 20 53 23 100 106
271 137 284 8 3 12 10 8 17 -3 6 -3 8 2 4 18 -16 45 13 46 50 1 20 7 -7 14
-61 7 -54 15 -101 19 -104z m833 111 c40 -37 43 -45 43 -91 0 -27 -3 -77 -6
-111 l-7 -60 -54 111 c-65 132 -103 216 -103 229 0 15 81 -34 127 -78z m1933
55 c0 -5 5 -7 12 -3 7 4 8 3 4 -5 -6 -9 -12 -9 -24 1 -10 7 -19 14 -21 15 -2
2 3 3 12 3 10 0 17 -5 17 -11z m-147 -111 c26 -40 59 -87 73 -105 l25 -31 -73
-12 c-89 -14 -178 -40 -178 -51 0 -5 4 -9 9 -9 5 0 8 -8 7 -17 -1 -19 9 -20
54 -7 24 6 24 6 6 -8 -30 -23 -34 -115 -7 -150 40 -50 115 -43 155 14 32 45
10 124 -42 152 l-27 15 25 0 c14 -1 49 4 79 9 51 9 55 8 87 -20 18 -16 36 -37
39 -47 3 -9 -1 -53 -9 -97 -16 -93 -50 -168 -72 -160 -7 3 -23 -4 -34 -16 -24
-26 -27 -46 -3 -27 11 10 14 10 9 2 -15 -26 19 -12 63 25 70 58 72 59 56 12
-8 -23 -21 -91 -29 -152 -8 -61 -20 -116 -28 -123 -18 -18 -128 -51 -223 -69
-141 -26 -150 -26 -163 -5 -16 24 -83 26 -103 3 -11 -14 -27 -16 -102 -10
-156 12 -286 73 -386 181 -58 63 -71 99 -75 212 -4 140 5 204 37 249 49 72 86
110 94 98 4 -6 31 -15 58 -18 64 -9 86 -21 56 -31 -11 -3 -32 -21 -46 -39 -31
-41 -33 -96 -4 -142 18 -29 26 -34 58 -34 30 0 48 8 83 40 56 49 64 79 32 126
-13 18 -22 34 -20 34 2 0 20 -7 41 -16 32 -13 37 -13 32 -1 -3 8 -1 19 5 25
15 15 -41 48 -115 69 -32 9 -54 20 -50 24 4 3 60 17 123 29 185 35 274 72 365
153 47 42 39 47 118 -75z m-5063 92 c17 -9 18 -14 8 -35 -12 -26 -24 -30 -47
-16 -9 6 -11 18 -7 35 7 28 17 32 46 16z m4840 -4 c0 -14 -64 -76 -79 -76 -17
0 -21 33 -6 50 8 9 12 20 8 25 -5 4 -3 6 2 2 6 -3 17 -2 25 4 22 13 50 11 50
-5z m436 -28 c42 -47 68 -78 63 -78 -9 0 -111 110 -102 110 5 0 22 -15 39 -32z
m51 15 c0 -9 -4 -10 -14 -2 -7 6 -13 12 -13 14 0 1 6 2 13 2 8 0 14 -6 14 -14z
m-3911 -1 c6 -4 14 -26 17 -50 4 -36 3 -42 -10 -38 -8 3 -25 6 -38 6 -24 0
-37 34 -28 71 5 19 38 26 59 11z m2708 -18 c3 -8 2 -12 -4 -9 -6 3 -10 10 -10
16 0 14 7 11 14 -7z m-3238 -110 c17 -63 17 -65 -2 -79 -19 -15 -70 -13 -87 4
-7 7 5 104 19 153 5 16 7 16 29 2 16 -10 29 -35 41 -80z m3210 60 c-5 -20 -1
-33 15 -50 28 -30 19 -57 -18 -52 -24 3 -31 -3 -47 -37 -22 -46 -32 -34 -17
22 7 24 7 41 1 47 -18 18 -10 36 15 36 17 0 25 5 25 18 0 16 17 42 28 42 2 0
1 -12 -2 -26z m154 11 c-7 -9 -15 -13 -19 -10 -3 3 1 10 9 15 21 14 24 12 10
-5z m100 7 c0 -11 -39 -52 -49 -52 -17 0 -19 14 -4 36 14 22 53 34 53 16z
m-208 -26 c6 4 9 1 6 -6 -9 -27 -28 -22 -27 7 1 17 3 21 6 10 2 -9 9 -14 15
-11z m1014 -14 c-10 -10 -29 15 -21 28 6 9 10 8 17 -4 6 -10 7 -20 4 -24z
m111 16 c15 -14 23 -33 23 -55 0 -50 -29 -44 -59 13 -21 38 -22 47 -10 55 19
12 20 12 46 -13z m1413 -25 c1 -121 59 -391 85 -396 6 -1 33 43 60 97 l50 99
12 -94 c6 -52 12 -96 12 -98 7 -34 66 185 91 337 14 88 31 93 54 15 10 -32 22
-70 26 -86 8 -25 6 -29 -33 -49 -23 -11 -36 -23 -29 -26 7 -2 24 3 38 12 13 9
29 14 34 11 5 -3 17 -31 26 -62 9 -30 20 -51 24 -46 5 4 19 46 31 93 12 47 23
88 26 93 6 11 33 -19 33 -37 0 -9 4 -16 10 -16 5 0 33 -48 62 -106 l53 -107
-1 -106 c0 -58 -6 -149 -13 -203 l-13 -96 -47 -25 c-128 -68 -256 -92 -467
-84 -131 4 -176 10 -254 32 -111 31 -201 76 -236 117 -23 28 -24 36 -24 159 0
127 1 130 38 217 21 48 56 119 77 157 22 37 47 81 56 96 16 27 16 27 29 -54 7
-45 13 -90 12 -99 -2 -35 14 -17 37 42 13 33 27 60 32 60 4 0 21 -11 37 -25
16 -13 32 -21 36 -18 4 4 -10 21 -30 38 l-37 31 41 87 c22 48 45 87 51 87 6 0
11 -21 11 -47z m-6197 -50 c5 -45 3 -54 -13 -63 -20 -11 -70 5 -70 23 0 16 32
77 40 77 5 0 12 10 16 22 9 30 20 7 27 -59z m5057 26 c0 -31 12 -49 31 -49 21
0 26 -26 7 -32 -7 -3 -11 -19 -10 -42 3 -49 -19 -44 -31 6 -7 30 -12 34 -33
30 -20 -4 -24 -1 -24 22 0 19 5 26 20 26 17 0 19 4 14 28 -7 29 -7 30 -5 52 2
21 31 -17 31 -41z m-3384 -113 c-9 -43 -16 -125 -16 -193 0 -110 2 -122 29
-178 16 -33 41 -75 55 -94 15 -20 26 -48 26 -66 0 -17 6 -54 14 -84 l13 -52
-33 32 c-29 28 -44 53 -92 159 -11 23 -12 21 -10 -20 1 -25 1 -61 -1 -80 -1
-34 -3 -33 -36 37 -92 195 -84 413 23 618 l37 70 3 -37 c2 -20 -4 -70 -12
-112z m1241 54 c84 -187 87 -442 7 -615 -23 -51 -28 -56 -32 -35 -2 13 1 42 8
63 6 21 9 42 6 45 -7 6 -5 10 -36 -53 -30 -61 -72 -124 -83 -125 -5 0 -5 5 -1
11 9 15 33 355 34 472 0 63 3 86 12 85 14 -3 25 68 27 177 2 66 3 69 17 50 9
-11 27 -45 41 -75z m2185 55 c3 -14 1 -25 -3 -25 -5 0 -9 4 -9 9 0 5 -3 16 -6
25 -3 9 -2 16 4 16 5 0 12 -11 14 -25z m-112 -10 c-7 -9 -15 -13 -17 -11 -6 6
20 36 26 30 2 -2 -2 -10 -9 -19z m-1463 -37 c-3 -8 -6 -5 -6 6 -1 11 2 17 5
13 3 -3 4 -12 1 -19z m163 18 c0 -2 -8 -10 -17 -17 -16 -13 -17 -12 -4 4 13
16 21 21 21 13z m-4224 -33 c-21 -112 -24 -275 -7 -384 10 -60 7 -71 -12 -45
-12 16 -14 16 -31 -2 -11 -13 -14 -22 -7 -27 17 -10 13 -102 -4 -117 -9 -7
-22 -19 -30 -25 -7 -7 -18 -13 -23 -13 -5 0 -22 -10 -37 -21 -22 -18 -29 -20
-36 -8 -6 10 5 27 41 62 28 26 50 54 50 61 0 8 -9 43 -20 78 -22 69 -25 104
-11 112 5 4 14 39 21 79 6 39 16 80 21 89 5 10 9 27 9 37 0 11 4 22 9 25 4 3
19 33 31 66 23 61 46 82 36 33z m1523 -20 c-13 -15 -19 -16 -38 -4 -11 7 -10
12 5 28 17 18 20 18 31 5 9 -11 10 -19 2 -29z m3969 -6 c2 -10 -1 -17 -7 -17
-6 0 -7 7 -4 17 4 10 2 14 -5 9 -6 -3 -13 -2 -16 3 -4 5 2 8 11 7 10 -2 19
-10 21 -19z m-5103 -54 c4 -24 10 -43 14 -43 4 0 13 21 20 46 13 42 15 45 40
38 14 -4 39 -7 55 -8 27 -1 30 -5 42 -61 17 -85 47 -170 59 -169 6 1 30 49 55
108 42 99 60 126 60 91 0 -21 68 -155 79 -155 4 0 12 44 17 98 7 78 12 96 24
93 27 -6 65 -6 87 2 20 7 23 3 38 -68 9 -41 20 -75 24 -75 4 0 16 38 26 85 11
47 22 85 25 85 6 0 47 -129 56 -177 11 -55 21 -44 56 62 l13 40 3 -45 c6 -76
-18 -237 -63 -435 l-7 -30 25 30 25 30 -5 -30 c-3 -16 -13 -38 -21 -48 -25
-28 -118 -78 -175 -93 -48 -13 -221 -18 -304 -9 -93 9 -145 18 -215 37 -71 18
-77 22 -83 50 -4 16 -13 32 -20 34 -7 3 -16 21 -19 40 -7 35 -20 44 -30 22 -5
-10 -7 -10 -12 0 -3 7 -11 18 -18 25 -21 20 -36 54 -36 79 0 19 6 14 30 -24
32 -51 54 -63 45 -25 -29 136 -33 251 -9 323 17 48 50 106 66 112 4 2 8 11 8
20 1 29 17 -7 25 -55z m5267 22 c3 -14 2 -27 -1 -30 -4 -2 -8 10 -9 26 -3 36
4 38 10 4z m-1588 -24 c8 -11 8 -13 -1 -7 -8 4 -13 2 -13 -8 0 -8 4 -17 9 -21
6 -3 4 -16 -4 -32 -12 -22 -12 -29 0 -47 13 -17 12 -22 -3 -40 -9 -12 -13 -18
-8 -14 12 10 36 -11 35 -31 0 -10 -3 -8 -10 7 -5 13 -14 20 -20 16 -8 -4 -7
-9 2 -15 10 -6 10 -9 2 -9 -17 0 -33 33 -24 49 4 7 6 23 3 37 -5 30 9 165 16
144 2 -8 10 -21 16 -29z m47 6 c-10 -9 -11 -8 -5 6 3 10 9 15 12 12 3 -3 0
-11 -7 -18z m1457 -8 c-3 -8 -7 -3 -11 10 -4 17 -3 21 5 13 5 -5 8 -16 6 -23z
m-1432 -16 c-8 -15 -15 -25 -16 -21 0 12 23 58 27 54 3 -2 -2 -17 -11 -33z
m1522 -29 c0 -18 -3 -22 -9 -13 -11 18 -11 39 0 39 5 0 9 -12 9 -26z m-1168
-4 c0 -5 -4 -10 -10 -10 -5 0 -10 5 -10 10 0 6 5 10 10 10 6 0 10 -4 10 -10z
m41 -27 c-9 -16 -10 -14 -11 12 0 21 3 26 11 18 8 -8 8 -16 0 -30z m1006 5
c-3 -8 -6 -5 -6 6 -1 11 2 17 5 13 3 -3 4 -12 1 -19z m-481 -15 c-10 -10 -19
5 -10 18 6 11 8 11 12 0 2 -7 1 -15 -2 -18z m-3440 -95 c7 -57 14 -109 14
-117 0 -20 -12 -6 -14 16 -1 10 -5 38 -9 63 -13 93 -18 154 -12 148 4 -3 13
-53 21 -110z m3507 50 c8 -5 8 -10 0 -20 -6 -7 -13 -22 -16 -33 -3 -15 -5 -13
-6 8 -1 16 -6 27 -13 26 -27 -3 -48 1 -48 11 0 6 14 10 31 10 24 0 30 3 25 16
-3 9 -3 21 1 27 5 8 9 3 11 -13 2 -14 9 -28 15 -32z m-3549 -30 c4 -29 10 -71
12 -93 3 -22 10 -53 15 -70 8 -24 6 -35 -11 -57 -11 -15 -21 -35 -22 -45 -3
-38 -14 97 -16 210 -3 122 9 152 22 55z m2996 55 c25 -6 25 -6 -5 -12 -23 -5
-31 -13 -36 -36 l-7 -30 -1 28 c-1 20 -8 30 -26 37 -14 5 -25 11 -25 13 0 6
74 5 100 0z m600 -33 c0 -5 -7 -10 -15 -10 -8 0 -15 5 -15 10 0 6 7 10 15 10
8 0 15 -4 15 -10z m404 -54 c2 -14 -1 -26 -5 -26 -5 0 -9 14 -9 32 0 36 10 32
14 -6z m83 -8 c-3 -7 -5 -2 -5 12 0 14 2 19 5 13 2 -7 2 -19 0 -25z m-1616
-107 c-5 -9 -6 -22 -4 -28 3 -7 1 -13 -4 -13 -5 0 -9 21 -9 46 0 38 2 43 13
28 7 -10 9 -23 4 -33z m1606 -48 c-2 -21 -4 -6 -4 32 0 39 2 55 4 38 2 -18 2
-50 0 -70z m-1568 -15 c-1 -68 -6 -61 -11 15 -2 26 0 47 4 47 5 0 7 -28 7 -62z
m-4331 -50 c-11 -16 -24 -28 -29 -28 -12 0 -12 47 1 70 10 19 11 19 29 2 17
-16 17 -18 -1 -44z m4292 52 c0 -5 -5 -10 -11 -10 -5 0 -7 5 -4 10 3 6 8 10
11 10 2 0 4 -4 4 -10z m-3 -40 c1 -11 -2 -20 -5 -20 -4 0 -8 9 -9 20 -1 11 2
20 5 20 4 0 8 -9 9 -20z m-4027 -10 c0 -11 -4 -20 -9 -20 -5 0 -11 9 -14 20
-3 13 0 20 9 20 8 0 14 -9 14 -20z m1693 -72 c-5 -48 -12 -69 -29 -87 -13 -12
-26 -32 -29 -42 -4 -10 -11 -19 -16 -19 -18 0 -9 48 16 84 14 20 28 49 31 64
7 29 22 62 28 62 2 0 2 -28 -1 -62z m2324 30 c-3 -8 -6 -5 -6 6 -1 11 2 17 5
13 3 -3 4 -12 1 -19z m1620 -25 c-3 -10 -5 -4 -5 12 0 17 2 24 5 18 2 -7 2
-21 0 -30z m-5558 15 c0 -7 -8 -49 -17 -93 -15 -67 -20 -80 -37 -80 -32 0 -30
42 6 117 31 63 50 85 48 56z m1691 2 c0 -5 -2 -10 -4 -10 -3 0 -8 5 -11 10 -3
6 -1 10 4 10 6 0 11 -4 11 -10z m4036 -125 c-9 -21 -16 -45 -16 -54 0 -10 -13
-30 -29 -45 l-29 -28 -7 30 c-8 40 17 89 47 94 18 2 25 13 33 48 8 36 11 40
13 19 2 -15 -4 -44 -12 -64z m-1536 63 c0 -10 3 -9 9 1 5 8 11 9 15 3 3 -5 -1
-12 -9 -16 -8 -3 -15 -10 -15 -16 0 -6 4 -9 8 -6 4 2 8 -4 8 -14 0 -13 -4 -16
-12 -9 -14 11 -24 69 -12 69 4 0 8 -6 8 -12z m-4120 -8 c0 -5 -5 -10 -11 -10
-5 0 -7 5 -4 10 3 6 8 10 11 10 2 0 4 -4 4 -10z m5717 -32 c-3 -7 -5 -2 -5 12
0 14 2 19 5 13 2 -7 2 -19 0 -25z m-5625 -20 c-7 -7 -12 -8 -12 -2 0 14 12 26
19 19 2 -3 -1 -11 -7 -17z m3488 -61 c-4 -27 -15 -56 -25 -65 -17 -16 -17 -15
-12 26 5 38 33 100 42 90 1 -1 -1 -25 -5 -51z m1527 -3 c-3 -3 -12 -4 -19 -1
-8 3 -5 6 6 6 11 1 17 -2 13 -5z m-3519 -31 c-2 -23 0 -27 17 -25 16 3 17 1 8
-8 -19 -20 -43 -4 -43 30 0 16 5 30 11 30 6 0 9 -12 7 -27z m2369 5 c-3 -8 -6
-5 -6 6 -1 11 2 17 5 13 3 -3 4 -12 1 -19z m781 -30 c3 -31 9 -40 46 -62 65
-38 70 -48 40 -77 l-26 -24 -51 56 c-29 31 -65 64 -80 73 l-28 17 22 30 c16
23 28 29 48 27 22 -3 26 -8 29 -40z m2947 32 c6 -9 1 -11 -32 -14 -7 -1 -19
-10 -27 -21 -11 -14 -15 -16 -16 -6 0 35 59 67 75 41z m-6195 -9 c0 -5 -7 -11
-14 -14 -10 -4 -13 -1 -9 9 6 15 23 19 23 5z m187 -18 c2 -6 -4 -13 -13 -17
-21 -8 -26 -3 -18 18 7 18 25 17 31 -1z m-132 -13 c0 -7 -6 -15 -12 -17 -8 -3
-13 4 -13 17 0 13 5 20 13 18 6 -3 12 -11 12 -18z m-1653 -18 c-12 -2 -22 -8
-22 -14 0 -6 -3 -9 -6 -6 -3 4 0 16 6 28 10 18 14 19 27 8 15 -12 14 -13 -5
-16z m540 -82 c4 0 8 8 8 17 0 10 3 13 9 8 12 -13 45 -184 37 -192 -3 -3 -52
-11 -108 -17 -57 -6 -114 -17 -126 -24 -13 -8 -26 -12 -28 -9 -7 6 -7 117 0
124 3 3 15 -2 25 -11 19 -17 21 -17 46 8 14 14 36 28 49 32 25 6 35 45 37 138
l0 41 22 -57 c11 -32 25 -58 29 -58z m-458 84 c9 -3 16 -14 16 -23 0 -12 -2
-13 -9 -3 -4 8 -12 13 -17 12 -5 -1 -10 3 -12 9 -4 13 0 13 22 5z m1516 -9
c-7 -9 -15 -13 -17 -11 -7 7 7 26 19 26 6 0 6 -6 -2 -15z m1140 -14 c19 -16
31 -33 27 -37 -4 -4 -24 9 -45 29 -44 44 -31 49 18 8z m-2690 -8 c-1 -24 -2
-26 -11 -10 -5 9 -7 22 -4 27 10 17 15 11 15 -17z m1795 17 c3 -5 2 -10 -4
-10 -5 0 -13 5 -16 10 -3 6 -2 10 4 10 5 0 13 -4 16 -10z m280 -123 c11 -55
11 -63 -3 -74 -9 -7 -24 -13 -35 -13 -11 0 -46 -20 -79 -45 -33 -25 -64 -45
-69 -45 -13 0 -11 54 3 85 10 22 9 28 -3 35 -10 7 -6 11 18 16 20 4 33 14 37
27 4 17 7 18 21 7 14 -12 18 -11 26 1 5 8 9 18 9 22 0 5 7 15 15 23 8 9 15 30
15 47 l1 32 15 -28 c9 -16 22 -57 29 -90z m3730 67 c8 3 17 1 20 -3 6 -10 -24
-20 -42 -14 -14 5 -18 45 -5 57 4 4 8 -4 10 -19 2 -18 8 -25 17 -21z m-125 16
c0 -5 -6 -10 -14 -10 -8 0 -18 5 -21 10 -3 6 3 10 14 10 12 0 21 -4 21 -10z
m428 -65 c11 -33 24 -81 27 -108 l6 -47 -38 -16 c-21 -9 -59 -39 -84 -68 -26
-28 -50 -48 -54 -44 -3 3 -2 23 4 45 9 33 8 42 -9 65 -12 17 -15 25 -7 22 8
-3 20 2 27 11 9 11 15 13 20 4 9 -14 40 45 40 77 0 12 5 24 11 26 6 2 14 28
17 57 6 61 11 58 40 -24z m-5731 43 c-3 -8 -6 -5 -6 6 -1 11 2 17 5 13 3 -3 4
-12 1 -19z m5520 7 c1 -5 -8 -11 -21 -11 -18 -1 -23 2 -19 13 6 15 34 14 40
-2z m-151 -7 c5 -8 2 -9 -9 -5 -10 4 -17 1 -17 -5 0 -6 -3 -9 -6 -5 -7 7 4 27
16 27 5 0 12 -5 16 -12z m-66 -18 c0 -5 -10 -10 -22 -9 -22 0 -22 1 -3 9 11 5
21 9 23 9 1 1 2 -3 2 -9z m270 -11 c0 -4 -7 -6 -15 -3 -8 4 -15 10 -15 15 0 4
7 6 15 3 8 -4 15 -10 15 -15z m-5560 -15 c0 -8 -4 -14 -10 -14 -5 0 -10 9 -10
21 0 11 5 17 10 14 6 -3 10 -13 10 -21z m3212 1 c6 -28 -6 -34 -16 -9 -5 14 0
34 8 34 2 0 6 -11 8 -25z m-2011 -92 c6 -94 1 -474 -6 -481 -12 -13 -26 19
-40 93 -15 75 -14 85 5 171 l21 91 -20 78 c-24 91 -25 95 -10 132 l11 28 17
-22 c12 -14 19 -44 22 -90z m2094 97 c3 -5 2 -10 -4 -10 -5 0 -17 -3 -27 -7
-16 -6 -17 -5 -4 10 17 19 26 21 35 7z m902 -2 c4 -7 37 -37 73 -67 36 -30 72
-61 81 -68 14 -12 23 -8 70 27 29 22 58 40 62 40 17 0 -13 -28 -64 -61 l-49
-31 -73 58 c-91 74 -133 114 -119 114 6 0 15 -6 19 -12z m-2815 -50 c-6 -6 -7
0 -4 19 5 21 7 23 10 9 2 -10 0 -22 -6 -28z m878 7 c20 -24 69 -47 82 -39 7 4
8 3 4 -4 -14 -22 -42 -12 -91 33 -28 25 -41 41 -29 36 11 -5 27 -17 34 -26z
m1089 26 c7 -5 12 -14 9 -21 -2 -7 -10 -4 -22 9 -19 21 -12 28 13 12z m748
-28 c-3 -10 -5 -4 -5 12 0 17 2 24 5 18 2 -7 2 -21 0 -30z m-4481 -10 c4 -21
12 -49 19 -63 7 -14 17 -55 23 -92 8 -54 7 -80 -6 -140 -9 -40 -17 -99 -17
-130 0 -38 -3 -54 -10 -47 -6 6 -10 74 -11 157 -1 131 -15 246 -40 330 -5 18
-2 22 14 22 16 0 23 -8 28 -37z m3951 -15 c-3 -8 -6 -5 -6 6 -1 11 2 17 5 13
3 -3 4 -12 1 -19z m-1727 7 c0 -3 -11 -31 -24 -63 -49 -117 -76 -252 -84 -422
l-6 -135 -13 55 c-7 30 -14 119 -15 197 -2 168 -10 172 -57 30 -23 -71 -31
-112 -32 -179 -1 -49 -3 -88 -5 -88 -11 0 -44 84 -49 126 -11 81 24 230 81
349 27 57 33 62 104 97 71 35 100 45 100 33z m667 -62 c-2 -16 -4 -5 -4 22 0
28 2 40 4 28 2 -13 2 -35 0 -50z m1230 1 c7 -27 15 -59 19 -71 5 -19 0 -23
-38 -33 -23 -6 -60 -22 -80 -35 -20 -13 -48 -27 -62 -31 -21 -5 -26 -3 -26 12
0 42 12 63 39 67 l26 3 -25 11 c-14 6 -32 18 -39 27 -12 14 -10 16 20 16 39 1
69 20 69 44 0 9 7 16 15 16 8 0 19 9 25 20 17 31 41 11 57 -46z m460 29 c-3
-10 -5 -4 -5 12 0 17 2 24 5 18 2 -7 2 -21 0 -30z m-110 -5 c-3 -7 -5 -2 -5
12 0 14 2 19 5 13 2 -7 2 -19 0 -25z m-3628 -60 c7 -40 15 -81 17 -90 3 -10 1
-18 -4 -18 -5 0 -15 30 -21 68 -18 100 -19 112 -12 112 4 0 12 -33 20 -72z
m4179 -40 l-1 -103 -7 95 c-6 89 -5 110 6 110 2 0 3 -46 2 -102z m1473 10
c-14 -95 -17 -105 -26 -96 -5 4 19 142 30 176 11 32 9 4 -4 -80z m103 -2 c-4
-47 -11 -86 -16 -86 -5 0 -7 8 -4 18 2 9 8 50 11 90 4 40 9 71 12 69 2 -3 1
-44 -3 -91z m101 64 c21 -16 34 -30 29 -30 -13 1 -90 60 -77 60 6 0 27 -13 48
-30z m200 14 c-25 -20 -75 -46 -75 -40 0 5 82 56 90 56 3 -1 -4 -8 -15 -16z
m-3245 -41 c0 -27 5 -79 10 -117 8 -50 7 -79 -1 -105 -7 -20 -12 -93 -11 -170
l0 -136 -20 45 c-28 65 -33 152 -14 226 19 75 20 130 1 208 -15 63 -8 96 20
96 11 0 15 -13 15 -47z m3309 -60 c-1 -70 -3 -82 -10 -58 -8 27 -2 145 7 145
2 0 4 -39 3 -87z m-4453 -31 c-11 -10 -12 3 -7 58 l6 55 3 -54 c2 -29 1 -56
-2 -59z m663 89 l25 -19 -28 -37 c-17 -22 -34 -34 -42 -31 -20 8 -17 -13 6
-52 25 -41 25 -41 -5 -52 -40 -15 -55 -3 -55 44 0 43 48 165 65 166 6 0 21 -9
34 -19z m-2204 -41 c10 -46 -4 -32 -15 15 -5 21 -5 34 0 29 4 -5 11 -25 15
-44z m4636 -31 c22 -84 24 -193 5 -228 l-13 -24 -6 34 c-10 56 -20 305 -12
297 4 -4 15 -39 26 -79z m-3204 4 c-2 -16 -4 -5 -4 22 0 28 2 40 4 28 2 -13 2
-35 0 -50z m4403 52 c-7 -8 -20 -15 -28 -15 -13 0 -12 3 4 15 25 19 40 19 24
0z m-6292 -31 c-3 -14 -5 -12 -10 9 -3 19 -2 25 4 19 6 -6 8 -18 6 -28z m4409
-46 c-2 -18 -4 -6 -4 27 0 33 2 48 4 33 2 -15 2 -42 0 -60z m900 60 c-3 -8 -6
-5 -6 6 -1 11 2 17 5 13 3 -3 4 -12 1 -19z m-5413 -4 c8 -21 8 -24 -3 -24 -5
0 -11 9 -14 20 -6 24 8 27 17 4z m4053 -16 c-3 -7 -5 -2 -5 12 0 14 2 19 5 13
2 -7 2 -19 0 -25z m-1867 13 c0 -4 36 -8 80 -7 44 1 80 4 80 9 0 4 7 7 16 7
10 0 14 -6 10 -15 -3 -8 2 -31 10 -51 32 -76 -19 -121 -127 -111 -91 8 -123
51 -83 112 15 23 15 25 0 31 -20 8 -21 34 -1 34 8 0 15 -4 15 -9z m397 -38
c-3 -10 -5 -2 -5 17 0 19 2 27 5 18 2 -10 2 -26 0 -35z m-2518 -29 c23 -4 41
-10 41 -14 0 -5 9 -6 20 -3 16 4 19 2 14 -11 -8 -20 -32 -17 -129 16 -41 13
-69 28 -67 36 1 6 -2 12 -8 12 -5 0 -10 5 -10 10 0 6 22 -1 49 -15 27 -13 68
-27 90 -31z m138 30 c-5 -26 -4 -26 37 -19 22 4 51 7 64 6 12 0 25 6 28 14 9
23 26 18 23 -7 -1 -13 3 -36 10 -53 31 -75 -35 -114 -141 -85 -21 6 -44 18
-53 26 -13 13 -13 19 -1 49 8 19 12 43 9 55 -4 13 0 26 8 31 21 13 22 12 16
-17z m416 -19 c-3 -13 -10 -29 -17 -34 -20 -16 -118 -41 -163 -41 -36 0 -43 3
-43 20 0 17 7 20 38 20 40 0 149 33 166 50 17 17 23 11 19 -15z m1231 19 c36
-14 3 -174 -35 -174 -19 0 -20 7 -18 90 2 95 6 102 53 84z m2193 -26 c-3 -8
-6 -5 -6 6 -1 11 2 17 5 13 3 -3 4 -12 1 -19z m279 -16 c26 -1 52 -6 58 -12
15 -15 29 -12 22 5 -3 9 0 15 10 15 10 0 14 -6 10 -15 -3 -9 -1 -24 6 -34 14
-23 3 -67 -19 -75 -9 -4 -40 -9 -69 -12 -45 -5 -57 -3 -81 16 -26 20 -41 60
-22 60 4 0 5 21 2 48 l-5 47 20 -21 c15 -16 33 -22 68 -22z m-3644 -41 c-2
-28 -7 -51 -12 -51 -9 0 -20 50 -20 92 0 24 3 27 18 19 13 -7 16 -19 14 -60z
m2729 51 c-7 -2 -18 1 -23 6 -8 8 -4 9 13 5 13 -4 18 -8 10 -11z m-1373 -8
c81 -6 92 -9 92 -26 0 -17 -6 -18 -77 -14 -43 2 -95 5 -115 5 -34 1 -38 4 -38
27 0 22 3 25 23 21 12 -3 64 -9 115 -13z m610 -27 c3 -21 -2 -25 -30 -30 -34
-5 -108 -1 -165 8 -26 5 -33 11 -33 29 0 22 1 23 113 20 111 -2 112 -3 115
-27z m3727 7 l70 1 0 -52 c0 -29 -5 -57 -11 -63 -21 -21 -114 -14 -138 10 -14
14 -15 121 -1 111 6 -5 42 -8 80 -7z m-2344 -11 c1 -16 2 -16 6 0 4 16 14 18
89 15 l84 -3 -6 -30 c-3 -16 -7 -31 -8 -32 -2 -2 -57 -6 -124 -10 l-122 -6 0
36 c0 37 1 38 68 46 6 0 13 -7 13 -16z m-3294 -13 c3 -11 9 -18 13 -15 5 3 11
1 14 -4 3 -5 -8 -11 -25 -13 -32 -5 -46 9 -35 37 8 21 27 19 33 -5z m3172 4
c7 5 11 -2 11 -16 0 -13 3 -33 6 -45 6 -23 -25 -63 -51 -63 -12 0 -14 10 -10
53 7 69 15 93 25 77 4 -7 13 -9 19 -6z m686 -5 c39 -6 77 -12 85 -13 8 -2 15
-13 15 -27 0 -26 -9 -27 -161 -13 -62 5 -62 5 -66 40 -4 33 -3 34 26 29 17 -3
63 -10 101 -16z m1654 12 c10 -6 12 -19 7 -45 l-7 -36 -69 -1 c-39 -1 -77 -1
-85 -1 -8 0 -39 0 -69 1 l-55 1 4 32 c3 17 8 35 12 39 5 5 53 10 108 12 55 1
109 4 120 5 11 1 26 -2 34 -7z m611 -55 c0 -48 5 -69 20 -89 20 -26 26 -52 13
-60 -12 -7 -53 11 -57 25 -2 7 -16 49 -30 93 -14 44 -26 84 -26 88 0 4 18 7
40 7 l40 0 0 -64z m-6849 -11 c-9 -35 -17 -60 -19 -55 -5 15 19 120 27 120 5
0 1 -29 -8 -65z m3156 43 c-3 -8 -6 -5 -6 6 -1 11 2 17 5 13 3 -3 4 -12 1 -19z
m2764 4 c23 -10 18 -77 -7 -98 -10 -9 -14 -13 -7 -10 7 4 9 -1 6 -14 -3 -11
-14 -20 -24 -20 -16 0 -19 8 -19 53 0 90 10 106 51 89z m688 -2 c87 -10 101
-18 101 -58 0 -22 -3 -23 -37 -18 -21 3 -76 5 -123 6 l-85 0 0 40 c0 38 2 40
30 40 17 0 68 -5 114 -10z m-6047 -92 c-4 -144 -9 -155 -11 -25 0 64 2 117 7
117 4 0 6 -42 4 -92z m6213 23 c8 -26 13 -58 11 -72 -3 -13 -5 -26 -5 -29 -1
-3 -10 9 -20 25 -23 37 -35 136 -15 128 7 -3 20 -26 29 -52z m-4692 -53 c-3
-54 -9 -96 -12 -93 -4 2 -3 39 0 82 4 43 8 87 8 97 1 11 3 17 5 15 3 -2 2 -48
-1 -101z m2668 92 c5 0 9 -20 9 -44 0 -25 4 -56 10 -70 6 -17 6 -26 0 -26 -6
0 -15 12 -21 28 -6 15 -15 34 -19 42 -4 9 -11 31 -15 49 -6 29 -5 33 10 28 9
-4 21 -7 26 -7z m-4310 -125 c-8 -118 -8 -119 -9 -35 -2 78 6 165 14 157 2 -1
-1 -57 -5 -122z m2269 73 l-1 -33 -14 25 c-18 32 -18 40 0 40 10 0 15 -10 15
-32z m-2630 -84 c-20 -94 -30 -124 -30 -93 0 21 43 199 48 195 2 -2 -6 -48
-18 -102z m4417 -117 c-1 -39 -3 -7 -3 73 0 80 2 112 3 73 2 -40 2 -106 0
-146z m-498 84 c-12 -61 -24 -109 -26 -107 -3 2 0 30 6 60 6 31 16 81 22 112
6 30 13 53 16 51 2 -3 -6 -55 -18 -116z m2158 57 c-3 -8 -6 -5 -6 6 -1 11 2
17 5 13 3 -3 4 -12 1 -19z m-120 -30 c-3 -7 -5 -2 -5 12 0 14 2 19 5 13 2 -7
2 -19 0 -25z m110 -35 c-3 -10 -5 -4 -5 12 0 17 2 24 5 18 2 -7 2 -21 0 -30z
m-4200 -35 c-2 -13 -4 -3 -4 22 0 25 2 35 4 23 2 -13 2 -33 0 -45z m4080 10
c-3 -7 -5 -2 -5 12 0 14 2 19 5 13 2 -7 2 -19 0 -25z m-1930 -80 c-3 -8 -6 -5
-6 6 -1 11 2 17 5 13 3 -3 4 -12 1 -19z"/>
<path d="M826 3943 c-6 -14 -5 -15 5 -6 7 7 10 15 7 18 -3 3 -9 -2 -12 -12z"/>
<path d="M1505 3240 c-3 -5 -28 -21 -55 -36 -28 -15 -50 -31 -50 -36 0 -12 6
-10 79 32 33 19 61 38 61 43 0 10 -28 9 -35 -3z"/>
<path d="M2180 2970 c0 -5 5 -10 10 -10 6 0 10 5 10 10 0 6 -4 10 -10 10 -5 0
-10 -4 -10 -10z"/>
<path d="M2287 2947 c-11 -17 -16 -29 -12 -25 4 4 16 3 25 -2 14 -7 18 -6 16
5 -1 8 -5 17 -8 21 -4 3 -4 12 -1 20 9 25 -1 15 -20 -19z"/>
<path d="M2250 2892 c0 -7 -4 -11 -8 -8 -5 3 -9 0 -9 -7 0 -7 14 -13 30 -14
18 0 25 2 17 7 -7 4 -16 14 -21 21 -7 11 -9 11 -9 1z"/>
<path d="M2213 2808 c1 -18 2 -18 14 -2 16 21 17 10 3 -16 -8 -15 -7 -18 3
-14 20 7 16 47 -5 50 -11 1 -16 -4 -15 -18z"/>
<path d="M2266 2818 c-3 -7 -4 -21 -3 -30 0 -14 3 -15 14 -7 7 6 13 17 13 23
0 6 -5 4 -11 -4 -9 -12 -10 -11 -6 8 5 23 -1 31 -7 10z"/>
<path d="M2446 3782 c-3 -5 1 -9 9 -9 8 0 12 4 9 9 -3 4 -7 8 -9 8 -2 0 -6 -4
-9 -8z"/>
<path d="M2866 3593 c-6 -14 -5 -15 5 -6 7 7 10 15 7 18 -3 3 -9 -2 -12 -12z"/>
<path d="M2811 3530 c-1 -17 17 -40 31 -40 4 0 8 5 8 11 0 5 -5 7 -10 4 -6 -3
-14 4 -19 17 -6 14 -10 17 -10 8z"/>
<path d="M5026 2388 c5 -8 2 -9 -10 -5 -9 4 -15 3 -12 -1 3 -5 -8 -21 -25 -36
-16 -15 -27 -32 -24 -36 3 -5 1 -11 -5 -15 -5 -3 -10 -11 -10 -18 0 -6 6 -2
14 8 8 11 12 23 10 27 -3 5 4 8 15 8 12 0 21 5 21 10 0 6 7 10 15 10 8 0 15 5
15 11 0 6 9 9 20 6 29 -8 25 18 -6 31 -19 9 -24 9 -18 0z"/>
<path d="M4655 3529 c-4 -6 -5 -12 -2 -15 2 -3 7 2 10 11 7 17 1 20 -8 4z"/>
<path d="M4656 3473 c-6 -14 -5 -15 5 -6 7 7 10 15 7 18 -3 3 -9 -2 -12 -12z"/>
<path d="M4471 3413 c-10 -26 -10 -27 4 -9 8 11 15 23 15 28 0 15 -7 8 -19
-19z"/>
<path d="M4536 3402 c-3 -5 1 -9 9 -9 8 0 12 4 9 9 -3 4 -7 8 -9 8 -2 0 -6 -4
-9 -8z"/>
<path d="M4377 3353 c-3 -5 -8 -51 -12 -103 -3 -52 -8 -107 -10 -122 -2 -18 1
-25 9 -22 7 3 13 21 13 42 3 63 8 100 16 108 4 4 7 23 7 41 0 22 4 32 11 28 6
-4 5 2 -3 14 -13 22 -24 26 -31 14z"/>
<path d="M4414 3284 c2 -13 6 -27 11 -32 4 -4 5 -2 2 5 -4 6 -1 18 8 26 13 13
12 15 -5 20 -15 4 -18 0 -16 -19z"/>
<path d="M4410 3220 c-1 -8 -2 -21 -1 -29 2 -7 -2 -10 -8 -7 -5 4 -12 2 -15
-3 -4 -5 -2 -12 3 -15 14 -9 33 21 28 46 -2 13 -5 16 -7 8z"/>
<path d="M4463 3158 c-13 -19 -16 -78 -4 -78 6 0 11 -7 11 -16 0 -8 5 -12 10
-9 7 4 5 14 -5 27 -11 17 -12 25 -2 36 9 12 9 16 -1 20 -10 3 -10 7 -1 18 6 8
9 14 6 14 -2 0 -9 -6 -14 -12z"/>
<path d="M4338 2895 c-3 -4 -3 -18 1 -33 8 -28 -5 -87 -39 -181 -18 -47 -20
-65 -12 -88 l10 -28 1 30 c1 17 12 52 26 80 14 27 25 65 25 85 0 19 1 53 4 75
4 39 -4 71 -16 60z"/>
<path d="M4311 2532 c-14 -26 -14 -69 -1 -77 6 -3 13 2 16 12 3 10 9 25 14 34
6 11 4 23 -4 35 -13 17 -14 17 -25 -4z"/>
<path d="M5363 2905 c-3 -9 -3 -18 -1 -21 3 -3 8 4 11 16 6 23 -1 27 -10 5z"/>
<path d="M3092 2410 c0 -14 2 -19 5 -12 2 6 2 18 0 25 -3 6 -5 1 -5 -13z"/>
<path d="M5631 2146 c-9 -11 -9 -16 0 -22 7 -4 9 -3 5 4 -3 6 -2 13 4 17 5 3
10 2 10 -4 0 -6 7 -8 16 -4 14 5 14 3 3 -15 -7 -11 -18 -18 -24 -14 -5 3 -3
-2 5 -12 13 -16 12 -20 -5 -32 -14 -10 -15 -14 -4 -14 12 0 12 -2 -1 -9 -8 -6
-18 -7 -22 -5 -4 3 -8 0 -8 -6 0 -8 7 -9 18 -5 9 4 31 8 49 8 25 -1 31 3 30
18 -1 11 -5 15 -10 10 -16 -16 -38 -1 -27 19 5 9 7 20 3 23 -3 4 0 13 7 22 10
12 9 16 -6 21 -11 4 -22 9 -25 10 -4 2 -12 -3 -18 -10z m44 -104 c-3 -3 -11 0
-18 7 -9 10 -8 11 6 5 10 -3 15 -9 12 -12z"/>
<path d="M5438 2133 c7 -3 16 -2 19 1 4 3 -2 6 -13 5 -11 0 -14 -3 -6 -6z"/>
<path d="M5704 2118 c-4 -7 -4 -10 1 -6 4 4 15 2 24 -5 14 -11 14 -10 2 6 -16
20 -18 21 -27 5z"/>
<path d="M4745 2094 c-18 -18 -19 -46 -3 -62 16 -16 58 22 51 48 -7 26 -29 32
-48 14z m25 -23 c0 -6 -4 -13 -10 -16 -5 -3 -10 1 -10 9 0 9 5 16 10 16 6 0
10 -4 10 -9z"/>
<path d="M5401 2092 c-6 -12 -7 -22 -1 -28 5 -5 11 -26 12 -46 3 -31 6 -36 26
-34 23 3 44 16 24 16 -6 0 -9 7 -5 17 4 11 3 14 -5 9 -11 -7 -16 7 -15 42 1 8
-5 11 -14 7 -13 -4 -14 -3 -4 9 8 9 8 16 2 20 -6 4 -15 -2 -20 -12z"/>
<path d="M5199 2098 c-5 -18 -6 -38 -1 -34 7 8 12 36 6 36 -2 0 -4 -1 -5 -2z"/>
<path d="M5563 2083 c-7 -2 -12 -19 -12 -36 2 -28 2 -29 6 -7 3 14 10 31 15
38 11 13 10 13 -9 5z"/>
<path d="M5532 2050 c0 -19 2 -27 5 -17 2 9 2 25 0 35 -3 9 -5 1 -5 -18z"/>
<path d="M5792 2065 c-11 -13 -10 -15 4 -15 10 0 26 -8 37 -17 17 -15 16 -12
-3 15 -13 17 -24 32 -24 32 -1 -1 -7 -7 -14 -15z"/>
<path d="M4970 1999 c0 -5 5 -7 10 -4 6 3 10 8 10 11 0 2 -4 4 -10 4 -5 0 -10
-5 -10 -11z"/>
<path d="M5156 1997 c3 -10 9 -15 12 -12 3 3 0 11 -7 18 -10 9 -11 8 -5 -6z"/>
<path d="M3436 1648 c-19 -18 -19 -18 15 -17 44 1 81 15 59 22 -39 13 -56 12
-74 -5z"/>
<path d="M2837 1638 c-10 -35 2 -41 65 -34 38 4 57 2 53 -4 -3 -6 -12 -10 -19
-10 -17 0 -49 -73 -49 -111 0 -20 10 -41 33 -64 28 -29 41 -35 76 -35 37 0 45
4 63 34 26 41 28 121 5 155 l-16 23 30 -16 c38 -20 66 -21 59 -2 -3 7 0 19 6
25 17 17 -51 40 -155 51 -136 14 -145 13 -151 -12z m133 -82 c0 -16 -14 -36
-26 -36 -14 0 -19 22 -7 33 7 8 33 10 33 3z"/>
<path d="M3543 1630 c-96 -14 -103 -17 -103 -50 0 -33 -3 -32 75 -13 15 3 17
2 6 -5 -19 -13 -26 -105 -12 -141 30 -71 127 -67 170 9 24 43 27 84 7 121
l-13 26 38 -7 c38 -7 38 -7 36 24 -1 17 -6 34 -12 38 -12 9 -122 8 -192 -2z
m3 -117 c-10 -10 -19 5 -10 18 6 11 8 11 12 0 2 -7 1 -15 -2 -18z"/>
<path d="M2815 1344 c-13 -20 -14 -29 -5 -38 6 -6 10 -6 9 -1 -2 6 3 21 10 33
18 33 7 38 -14 6z"/>
<path d="M2855 1332 c-5 -4 -16 -17 -23 -29 -10 -19 -10 -23 3 -23 8 0 17 11
21 25 3 14 11 22 17 18 6 -3 7 -1 3 5 -8 14 -8 14 -21 4z"/>
<path d="M2895 1331 c3 -5 1 -12 -5 -16 -5 -3 -10 -14 -10 -23 0 -13 5 -12 19
8 19 24 19 40 0 40 -6 0 -8 -4 -4 -9z"/>
<path d="M3673 1320 c-6 -14 -8 -29 -5 -34 7 -13 24 22 19 42 -3 14 -6 12 -14
-8z"/>
<path d="M3629 1323 c0 -5 -2 -20 -4 -35 -2 -16 1 -28 6 -28 5 0 10 7 10 15 2
24 4 29 12 43 5 8 3 12 -7 12 -9 0 -16 -3 -17 -7z"/>
<path d="M3730 1285 c0 -14 2 -25 4 -25 2 0 6 11 8 25 3 14 1 25 -3 25 -5 0
-9 -11 -9 -25z"/>
<path d="M3045 1236 c-57 -137 47 -263 213 -257 31 1 45 22 22 36 -6 3 -7 -1
-4 -9 3 -9 1 -16 -6 -16 -6 0 -8 5 -5 10 3 6 -2 10 -12 11 -16 0 -16 1 1 8 19
7 19 8 -2 13 -13 4 -22 2 -22 -5 0 -8 -4 -7 -9 2 -5 7 -14 10 -21 6 -9 -6 -9
-9 1 -16 8 -5 9 -9 3 -9 -6 0 -17 7 -24 15 -7 8 -17 12 -23 8 -5 -3 -7 -1 -3
5 3 6 1 14 -6 19 -13 7 -18 9 -37 12 -5 0 -4 12 2 25 7 13 16 22 20 19 5 -3 4
-10 -2 -16 -6 -6 -11 -15 -11 -21 0 -5 6 -2 13 9 8 10 18 15 23 12 6 -3 10 4
11 16 0 12 -1 16 -4 10 -3 -7 -9 -13 -15 -13 -6 0 -6 6 2 15 7 8 16 12 21 9 5
-3 9 1 9 8 0 9 3 9 10 -2 9 -13 10 -13 10 0 1 12 3 11 11 -3 5 -9 7 -22 3 -29
-4 -7 -3 -8 5 -4 6 4 9 16 6 26 -4 12 0 20 12 24 28 9 142 5 148 -4 3 -5 13
-6 22 -3 11 4 14 3 9 -5 -6 -11 5 -15 30 -11 14 2 23 -26 11 -33 -9 -6 -9 -8
1 -8 7 0 12 -12 11 -27 l-1 -28 -7 25 c-7 23 -8 23 -13 5 -3 -11 -4 -6 -3 12
2 20 -3 34 -12 37 -22 9 -26 7 -15 -6 5 -7 11 -29 14 -49 3 -31 1 -35 -17 -34
-11 1 -23 -5 -27 -14 -6 -14 -7 -13 -7 2 -1 10 -6 15 -11 12 -6 -4 -8 -10 -5
-15 3 -5 1 -11 -5 -15 -5 -3 -10 3 -10 13 0 11 7 23 16 26 12 5 15 16 12 41
-2 19 -1 35 3 35 4 0 10 -15 12 -32 4 -29 4 -28 3 5 -1 20 3 37 9 37 5 1 -1 7
-15 14 -29 15 -136 16 -133 1 1 -5 4 -19 8 -30 4 -14 2 -12 -8 5 -9 14 -13 29
-10 34 4 5 1 6 -5 2 -8 -5 -9 -13 -2 -25 6 -12 5 -22 -3 -30 -9 -10 -8 -11 6
-6 12 5 17 2 17 -10 0 -11 5 -15 16 -11 10 4 13 2 8 -6 -4 -6 -3 -8 3 -5 6 4
9 -3 8 -16 -1 -12 2 -31 6 -42 7 -15 8 -10 5 17 -3 25 0 38 10 42 8 3 14 1 14
-4 0 -23 30 5 31 29 2 26 2 26 6 2 3 -15 -1 -29 -10 -36 -8 -6 -17 -19 -20
-30 -4 -18 -5 -18 -6 3 0 12 -5 22 -9 22 -5 0 -7 -13 -4 -30 2 -16 7 -28 11
-26 3 2 15 0 26 -4 30 -11 128 26 161 61 27 29 29 35 28 111 0 72 -3 83 -23
99 -16 13 -31 17 -50 12 -36 -10 -240 -10 -334 0 l-78 8 -14 -35z m340 -105
c5 -1 -1 -8 -13 -17 -12 -8 -22 -23 -22 -33 0 -13 -8 -18 -25 -18 -14 0 -28 4
-31 8 -3 5 -10 7 -15 4 -5 -4 -9 -2 -9 4 0 19 21 23 43 8 21 -14 22 -13 24 16
0 16 -2 26 -6 21 -11 -16 -61 -16 -61 -1 0 13 44 16 115 8z m-60 -31 c3 -6 -1
-7 -9 -4 -18 7 -21 14 -7 14 6 0 13 -4 16 -10z m-210 -50 c3 -5 1 -10 -4 -10
-6 0 -11 5 -11 10 0 6 2 10 4 10 3 0 8 -4 11 -10z"/>
<path d="M3346 1114 c-5 -14 -4 -15 9 -4 17 14 19 20 6 20 -5 0 -12 -7 -15
-16z"/>
<path d="M3297 1079 c7 -7 15 -10 18 -7 3 3 -2 9 -12 12 -14 6 -15 5 -6 -5z"/>
<path d="M3180 1125 c-1 -5 -3 -19 -5 -30 -2 -10 1 -25 7 -32 8 -10 7 -12 -6
-7 -9 3 -16 13 -16 21 0 8 -5 11 -11 8 -7 -5 -2 -16 12 -32 22 -22 24 -23 36
-7 15 21 17 38 4 29 -5 -3 -12 -1 -15 4 -4 5 -1 13 5 17 8 4 9 3 5 -5 -5 -7
-2 -10 6 -9 7 2 13 -6 13 -16 0 -12 8 -20 24 -23 14 -2 31 -8 38 -15 11 -8 12
-7 7 6 -3 9 -12 16 -20 16 -8 0 -14 8 -14 17 0 15 -1 15 -13 -2 -13 -17 -14
-17 -12 1 0 11 5 26 10 34 7 12 6 13 -7 3 -18 -15 -29 -7 -21 15 4 13 3 14 -5
3 -8 -11 -10 -11 -15 0 -3 8 -6 10 -7 4z"/>
<path d="M3409 1068 c-3 -22 -1 -34 4 -29 5 5 7 21 5 37 -3 27 -4 26 -9 -8z"/>
<path d="M5486 1725 c-16 -14 -27 -28 -23 -31 8 -8 56 28 57 44 0 16 0 16 -34
-13z"/>
<path d="M5080 1625 c0 -7 72 -36 78 -30 11 11 -23 35 -49 35 -16 0 -29 -2
-29 -5z"/>
<path d="M5473 1600 c-23 -9 -32 -30 -14 -30 23 0 62 21 56 30 -7 12 -13 12
-42 0z"/>
<path d="M4810 1248 c-23 -37 -26 -55 -7 -40 20 17 49 72 37 72 -5 0 -19 -15
-30 -32z"/>
<path d="M4895 1259 c-25 -34 -45 -79 -36 -79 13 0 54 67 49 81 -2 7 -7 7 -13
-2z"/>
<path d="M4950 1251 c0 -5 6 -14 14 -20 12 -10 13 -8 9 8 -5 21 -23 30 -23 12z"/>
<path d="M5630 1249 c0 -6 -5 -7 -12 -3 -7 4 -8 3 -4 -4 4 -7 3 -12 -2 -12 -5
0 -14 -11 -20 -25 -16 -35 -1 -31 35 9 22 26 27 36 17 40 -8 3 -14 1 -14 -5z"/>
<path d="M5660 1219 c-24 -33 -19 -55 4 -23 14 18 28 54 21 54 -2 0 -13 -14
-25 -31z"/>
<path d="M4933 1233 c4 -3 2 -12 -5 -20 -16 -20 -2 -28 17 -9 17 16 13 36 -7
36 -6 0 -8 -3 -5 -7z"/>
<path d="M5245 1208 c-12 -8 -57 -13 -111 -13 l-91 0 3 -40 c2 -22 5 -63 7
-92 5 -64 38 -112 99 -142 35 -16 65 -21 161 -22 104 -2 120 0 145 18 49 37
65 77 66 169 1 46 4 84 9 84 4 0 7 4 7 9 0 4 -18 3 -41 -3 -39 -10 -78 -3
-214 38 -11 3 -29 0 -40 -6z m8 -127 c2 -10 0 -26 -6 -37 -7 -13 -7 -19 1 -22
19 -6 14 -21 -5 -17 -10 1 -17 8 -15 14 1 6 -2 11 -8 11 -14 0 -13 -13 2 -28
6 -6 9 -14 6 -18 -4 -3 -14 9 -23 27 -16 30 -16 34 -1 44 9 7 16 20 16 29 0
22 27 20 33 -3z m37 7 c0 -4 -3 -8 -7 -8 -5 0 -8 -14 -9 -31 -1 -17 2 -25 6
-19 5 8 9 6 14 -6 4 -9 1 -22 -5 -28 -9 -8 -10 -7 -4 4 6 12 5 13 -5 3 -18
-16 -5 -29 13 -15 8 7 17 9 20 5 4 -3 7 -1 7 5 0 7 5 12 10 12 6 0 9 -3 9 -7
-1 -5 -1 -21 0 -38 1 -22 4 -26 10 -16 5 8 7 24 4 35 -2 12 -5 26 -5 33 -1 6
-8 9 -17 6 -11 -3 -10 0 3 11 11 9 23 16 28 16 4 0 8 5 8 11 0 7 -8 6 -22 -3
-22 -14 -23 -14 -25 12 -2 28 9 33 35 17 7 -5 12 -3 12 5 1 8 6 7 14 -5 8 -10
17 -18 20 -18 20 3 26 -1 26 -15 0 -8 4 -13 9 -10 5 3 16 -5 25 -18 13 -21 14
-25 0 -30 -8 -3 -12 -1 -9 4 3 5 1 18 -5 27 -9 15 -10 14 -4 -6 4 -16 3 -21
-5 -17 -6 4 -11 15 -12 24 0 14 -2 13 -9 -3 l-9 -20 -1 20 -1 20 -8 -20 c-5
-11 -6 -27 -4 -35 3 -10 2 -11 -4 -4 -6 9 -11 8 -21 -2 -7 -8 -8 -14 -2 -14 5
0 10 -8 11 -17 0 -16 1 -15 8 1 7 19 8 19 13 -2 4 -12 2 -20 -2 -17 -5 3 -10
-1 -13 -7 -3 -8 -9 -3 -15 12 -9 22 -18 13 -13 -13 1 -5 -3 -6 -9 -2 -5 3 -10
2 -10 -3 0 -10 -67 -8 -78 2 -3 3 0 6 6 6 7 0 12 4 12 8 0 5 -7 9 -15 9 -8 0
-15 -6 -15 -14 0 -7 -5 -13 -11 -13 -5 0 -7 5 -4 10 3 6 2 10 -4 10 -5 0 -12
-6 -14 -12 -3 -7 -6 -3 -6 9 -1 16 4 21 18 18 11 -2 26 4 33 13 11 13 11 14
-2 7 -28 -17 -61 -13 -70 9 -6 14 -9 16 -9 5 -1 -8 5 -21 11 -27 10 -10 10
-15 -2 -22 -19 -12 -36 3 -44 40 -4 23 -9 28 -22 23 -12 -4 -15 -3 -10 5 4 7
14 12 22 12 8 0 14 8 14 18 0 13 -2 14 -9 3 -5 -8 -14 -10 -21 -6 -9 5 -11 4
-6 -3 4 -7 2 -12 -3 -12 -18 0 -12 -24 9 -38 11 -7 20 -18 20 -24 0 -7 -12 0
-27 14 -24 24 -25 30 -15 53 7 14 17 23 22 20 6 -3 14 4 19 17 6 13 10 19 10
15 1 -5 7 -5 13 -1 18 11 48 12 48 2 0 -4 -11 -8 -24 -8 -30 0 -36 -9 -25 -35
7 -18 8 -18 9 5 2 25 2 24 10 -4 5 -15 17 -37 27 -48 16 -18 18 -18 30 -2 10
14 13 14 13 3 1 -10 4 -9 11 4 8 13 7 22 -1 33 -7 8 -8 14 -2 14 5 0 8 13 7
28 -1 19 2 29 11 29 8 0 14 -4 14 -9z m17 -2 c-3 -7 0 -19 6 -26 9 -10 9 -11
0 -6 -7 4 -13 2 -13 -3 0 -6 4 -11 8 -11 5 0 9 -7 9 -16 0 -14 -2 -14 -14 2
-7 10 -13 23 -13 30 0 16 11 44 17 44 3 0 3 -6 0 -14z m132 -95 c4 -6 15 -9
24 -5 11 4 17 1 17 -7 0 -7 -3 -9 -6 -6 -11 11 -44 -13 -44 -31 -1 -15 -2 -15
-11 1 -17 30 -18 65 -2 63 8 -1 18 -8 22 -15z m21 -41 c0 -5 -2 -10 -4 -10 -3
0 -8 5 -11 10 -3 6 -1 10 4 10 6 0 11 -4 11 -10z"/>
<path d="M5230 1077 c0 -10 -7 -20 -15 -23 -22 -9 -18 -23 5 -17 11 3 18 9 15
13 -3 5 -1 10 5 12 6 2 6 8 0 18 -8 13 -10 12 -10 -3z"/>
<path d="M5335 1080 c-3 -5 1 -10 10 -10 9 0 13 5 10 10 -3 6 -8 10 -10 10 -2
0 -7 -4 -10 -10z"/>
<path d="M5376 1068 c4 -11 0 -20 -8 -23 -10 -4 -13 -15 -10 -30 5 -29 19 -24
33 12 5 13 13 21 19 18 5 -3 10 -2 10 4 0 5 -4 13 -10 16 -5 3 -10 1 -10 -6 0
-7 -7 -4 -15 7 -12 16 -14 16 -9 2z m7 -38 c-3 -12 -8 -19 -11 -16 -5 6 5 36
12 36 2 0 2 -9 -1 -20z"/>
<path d="M5150 1006 c1 -6 7 -24 14 -41 8 -19 15 -25 20 -17 4 7 3 12 -2 12
-5 0 -12 9 -15 20 -3 11 -1 20 4 20 5 0 9 4 9 8 0 5 -7 9 -15 9 -8 0 -15 -5
-15 -11z"/>
<path d="M5293 973 c-3 -7 -9 -11 -13 -8 -5 3 -12 1 -15 -5 -4 -6 -3 -10 2 -9
27 5 35 -1 23 -16 -11 -13 -10 -14 4 -9 11 4 14 13 10 33 -5 18 -3 23 4 16 6
-5 12 -21 15 -35 3 -19 5 -16 6 11 1 27 -3 36 -15 36 -9 0 -18 -6 -21 -14z"/>
<path d="M5415 970 c3 -5 8 -10 11 -10 2 0 4 5 4 10 0 6 -5 10 -11 10 -5 0 -7
-4 -4 -10z"/>
<path d="M7132 1438 c-18 -18 -15 -25 13 -32 33 -8 44 -1 38 25 -4 16 -8 17
-14 7 -7 -10 -9 -10 -9 0 0 15 -12 16 -28 0z"/>
<path d="M7537 1418 c-14 -8 -16 -13 -6 -24 9 -11 8 -14 -8 -14 -16 0 -19 -5
-15 -31 4 -29 6 -30 41 -24 24 4 43 1 55 -8 26 -19 12 -38 -23 -31 -54 11 -49
-51 9 -99 41 -35 71 -42 106 -24 53 28 69 54 69 116 0 47 3 57 18 57 9 0 17
-4 17 -9 0 -19 26 20 27 41 2 22 0 22 -140 23 -82 1 -129 4 -112 9 27 6 28 8
10 15 -11 4 -22 9 -25 11 -3 1 -13 -2 -23 -8z"/>
<path d="M6907 1403 c-3 -5 -5 -18 -3 -29 2 -15 13 -20 54 -24 28 -3 54 -8 57
-12 14 -13 -7 -28 -31 -22 -23 6 -24 4 -24 -35 0 -31 6 -48 24 -66 26 -26 82
-41 120 -31 34 8 66 64 66 116 0 36 2 41 15 30 16 -13 21 -7 27 35 2 16 -5 20
-43 26 -91 14 -256 21 -262 12z"/>
<path d="M7039 1088 c-21 -50 -20 -66 1 -38 20 26 32 70 20 70 -4 0 -14 -15
-21 -32z"/>
<path d="M7625 1093 c-5 -10 -7 -21 -7 -25 1 -5 -2 -8 -8 -8 -5 0 -10 -4 -10
-10 0 -5 7 -10 16 -10 8 0 13 4 9 9 -3 5 2 17 11 26 11 11 13 20 7 26 -7 7
-13 4 -18 -8z"/>
<path d="M6980 1088 c0 -4 0 -11 1 -14 0 -4 -5 -10 -11 -14 -8 -5 -9 -10 -2
-14 6 -3 20 7 31 23 21 30 21 30 1 28 -11 -1 -20 -5 -20 -9z"/>
<path d="M7683 1068 c-25 -36 -22 -52 5 -22 14 16 29 54 20 54 -2 0 -13 -15
-25 -32z"/>
<path d="M7097 1066 c-10 -15 -15 -31 -11 -37 3 -6 12 1 20 17 20 37 12 53 -9
20z"/>
<path d="M7760 1085 c-1 -5 -2 -13 -1 -17 0 -5 -4 -8 -11 -8 -6 0 -8 -3 -5 -7
4 -3 2 -12 -4 -19 -7 -8 -7 -14 1 -19 6 -4 9 -3 8 2 -1 4 3 18 11 31 7 13 10
28 7 35 -2 7 -5 8 -6 2z"/>
<path d="M7323 918 c-32 -15 -29 -30 2 -16 21 9 32 8 60 -5 42 -20 47 -4 5 18
-33 17 -37 17 -67 3z"/>
<path d="M406 1125 c4 -8 8 -15 10 -15 2 0 4 7 4 15 0 8 -4 15 -10 15 -5 0 -7
-7 -4 -15z"/>
<path d="M814 1445 c-10 -24 9 -39 93 -70 l78 -30 -85 -10 c-90 -11 -110 -18
-110 -40 0 -22 36 -27 118 -15 134 20 152 27 152 59 0 27 -7 31 -113 75 -63
25 -117 46 -121 46 -3 0 -9 -7 -12 -15z"/>
<path d="M1450 1407 c-192 -86 -195 -90 -70 -123 47 -12 111 -29 143 -38 61
-17 77 -15 77 9 0 19 -23 30 -100 50 -101 25 -101 25 -20 56 82 32 106 50 97
73 -9 23 -21 20 -127 -27z"/>
<path d="M840 1228 c-10 -18 -17 -34 -15 -37 9 -8 41 28 42 49 2 28 -4 25 -27
-12z"/>
<path d="M898 1235 c-7 -9 -18 -22 -25 -29 -7 -8 -9 -16 -6 -20 4 -3 0 -6 -7
-6 -12 0 -12 -2 -1 -12 11 -11 14 -10 18 0 3 7 10 18 16 25 30 31 38 45 28 51
-5 4 -16 -1 -23 -9z"/>
<path d="M1145 1240 c-3 -5 -1 -10 4 -10 6 0 11 5 11 10 0 6 -2 10 -4 10 -3 0
-8 -4 -11 -10z"/>
<path d="M950 1214 c-6 -14 -10 -35 -9 -47 0 -21 1 -21 11 3 11 28 19 70 12
70 -3 0 -9 -12 -14 -26z"/>
<path d="M1378 1211 c-24 -28 -40 -61 -30 -61 11 0 62 57 62 70 0 16 -14 12
-32 -9z"/>
<path d="M1454 1207 c-3 -15 -9 -25 -13 -22 -4 2 -8 -1 -9 -8 0 -7 -3 -23 -7
-37 -6 -24 -6 -24 19 5 32 37 41 64 28 77 -8 8 -13 3 -18 -15z"/>
<path d="M1503 1148 c-3 -35 23 -39 29 -4 3 17 0 26 -11 29 -12 3 -17 -4 -18
-25z"/>
<path d="M961 1063 c-16 -11 2 -12 194 -14 22 0 47 -3 55 -6 27 -12 170 -21
170 -12 0 7 -48 14 -137 22 -24 2 -46 6 -49 9 -3 4 -19 2 -36 -3 -21 -6 -36
-5 -46 3 -18 15 -130 16 -151 1z"/>
<path d="M4520 1489 c0 -5 5 -7 10 -4 6 3 10 8 10 11 0 2 -4 4 -10 4 -5 0 -10
-5 -10 -11z"/>
<path d="M6880 251 c0 -6 4 -13 10 -16 6 -3 7 1 4 9 -7 18 -14 21 -14 7z"/>
<path d="M6914 3939 c0 -13 3 -15 13 -7 7 6 13 12 13 13 0 2 -6 5 -13 8 -7 3
-13 -3 -13 -14z"/>
<path d="M1461 3924 c0 -11 3 -14 6 -6 3 7 2 16 -1 19 -3 4 -6 -2 -5 -13z"/>
<path d="M6954 3925 c3 -23 12 -26 13 -5 1 11 -2 20 -7 20 -4 0 -7 -7 -6 -15z"/>
<path d="M1492 3909 c-16 -25 -15 -38 3 -35 26 4 35 20 21 38 -11 15 -13 15
-24 -3z"/>
<path d="M6913 3895 c0 -8 4 -12 9 -9 5 3 6 10 3 15 -9 13 -12 11 -12 -6z"/>
<path d="M6275 3821 c-3 -5 -2 -12 3 -15 5 -3 9 1 9 9 0 17 -3 19 -12 6z"/>
<path d="M8381 3719 c-13 -11 -21 -22 -18 -25 6 -7 56 27 57 39 0 12 -14 7
-39 -14z"/>
<path d="M5956 3663 c-6 -14 -5 -15 5 -6 7 7 10 15 7 18 -3 3 -9 -2 -12 -12z"/>
<path d="M8348 3652 c-14 -9 -45 -42 -69 -72 -50 -64 -80 -94 -127 -132 -35
-28 -35 -28 -9 -28 14 0 29 4 32 10 3 5 16 15 27 21 18 10 20 9 15 -5 -4 -10
-3 -15 2 -12 5 3 14 -1 21 -9 7 -8 16 -15 21 -15 15 0 10 19 -10 39 -20 20
-19 20 10 57 16 20 29 40 29 43 0 6 34 49 71 89 28 29 21 36 -13 14z"/>
<path d="M6484 3505 c-51 -35 -141 -75 -174 -76 l-35 -2 35 -6 c19 -4 42 -4
50 0 8 4 40 17 70 29 57 24 99 50 100 63 0 12 -24 8 -46 -8z"/>
<path d="M7236 3441 c-4 -7 -14 -10 -22 -7 -8 3 -14 1 -14 -5 0 -15 30 -23 42
-11 6 6 8 16 6 23 -4 11 -6 11 -12 0z"/>
<path d="M6163 3433 c9 -2 23 -2 30 0 6 3 -1 5 -18 5 -16 0 -22 -2 -12 -5z"/>
<path d="M6223 3433 c9 -2 25 -2 35 0 9 3 1 5 -18 5 -19 0 -27 -2 -17 -5z"/>
<path d="M5780 3420 c-8 -5 -10 -10 -5 -10 6 0 17 5 25 10 8 5 11 10 5 10 -5
0 -17 -5 -25 -10z"/>
<path d="M8180 3400 c0 -5 4 -10 10 -10 12 0 70 -60 70 -72 0 -5 4 -6 10 -3
11 7 4 17 -43 66 -28 29 -47 37 -47 19z"/>
<path d="M8347 3133 c-10 -9 -9 -23 1 -23 5 0 9 7 9 15 0 17 -1 18 -10 8z"/>
<path d="M8372 3061 c22 -39 22 -40 3 -61 -19 -21 -19 -21 8 -47 32 -32 47
-24 23 12 -15 22 -15 26 -1 31 24 9 18 38 -15 73 -40 41 -45 39 -18 -8z"/>
<path d="M6289 2773 c-13 -16 -12 -17 4 -4 16 13 21 21 13 21 -2 0 -10 -8 -17
-17z"/>
<path d="M6086 2751 c-7 -10 25 -45 57 -62 28 -16 20 5 -17 40 -20 19 -36 28
-40 22z"/>
<path d="M8080 2613 c-25 -8 -47 -18 -50 -22 -3 -3 -18 -14 -35 -23 -16 -9
-31 -22 -34 -29 -2 -7 10 -3 27 9 17 12 59 35 94 51 69 32 68 39 -2 14z"/>
<path d="M8100 2578 c-54 -20 -125 -65 -162 -101 -10 -10 -24 -15 -31 -11 -9
5 -9 4 0 -6 10 -11 19 -8 47 13 19 15 39 27 44 27 6 0 12 4 14 8 2 4 36 23 76
42 39 18 72 37 72 42 0 10 6 11 -60 -14z"/>
<path d="M7913 2515 c-15 -13 -23 -25 -17 -25 6 0 21 11 34 25 30 32 19 32
-17 0z"/>
<path d="M7900 2370 c0 -5 4 -19 9 -32 5 -13 12 -36 16 -51 3 -15 10 -25 15
-22 6 4 6 12 0 23 -5 9 -12 34 -15 55 -3 20 -10 37 -15 37 -6 0 -10 -4 -10
-10z"/>
<path d="M15 2107 c10 -15 20 -25 23 -22 3 3 -5 16 -17 28 l-23 22 17 -28z"/>
<path d="M125 2073 c3 -8 5 -19 5 -24 0 -5 3 -9 8 -9 4 0 7 11 7 23 0 13 -6
24 -13 24 -7 0 -10 -7 -7 -14z"/>
<path d="M80 2035 c0 -2 10 -14 23 -26 12 -12 16 -18 8 -14 -10 6 -12 4 -6 -4
5 -9 10 -10 18 -2 7 7 5 16 -8 31 -17 18 -35 27 -35 15z"/>
<path d="M7 2013 c-9 -14 -5 -353 4 -359 5 -3 9 -11 9 -17 0 -9 -2 -9 -8 0 -5
7 -8 -4 -8 -27 0 -23 5 -41 13 -44 7 -3 13 -13 12 -23 0 -16 -2 -16 -10 2 l-9
20 2 -20 c2 -11 -2 -27 -6 -35 -6 -9 -1 -7 12 4 26 23 33 19 25 -13 -4 -14 -8
-19 -13 -11 -5 8 -9 4 -13 -9 -3 -12 -1 -19 4 -16 13 9 50 -15 43 -27 -5 -7
-2 -8 6 -3 10 6 9 12 -6 24 -11 9 -18 25 -16 35 3 15 6 16 14 5 8 -11 9 -11 5
3 -6 19 9 27 36 20 29 -8 18 -27 -14 -24 -3 1 -5 -9 -4 -21 1 -12 3 -28 4 -35
0 -7 6 -10 11 -7 5 3 10 -3 10 -13 0 -11 8 -26 18 -33 15 -12 16 -12 5 1 -21
28 -10 55 22 54 l29 -1 -22 17 c-15 12 -18 20 -10 23 7 2 18 -3 25 -12 11 -14
12 -13 13 6 0 12 -4 25 -10 28 -5 3 -10 14 -10 24 0 10 -6 24 -14 31 -8 6 -12
19 -9 27 4 11 2 14 -6 9 -14 -9 -11 16 4 26 6 4 1 8 -10 8 -17 0 -17 2 -5 10
25 16 33 11 26 -14 -9 -37 11 -41 29 -6 14 27 14 30 0 30 -19 0 -19 14 0 30
19 16 19 26 -1 34 -11 4 -19 -4 -30 -29 -8 -19 -21 -35 -30 -35 -10 0 -12 5
-7 13 4 6 6 23 4 36 -2 14 1 21 8 17 17 -11 24 41 14 107 -6 33 -9 80 -7 104
3 42 -4 50 -39 44 -5 -1 -6 3 -3 8 4 5 3 12 -2 15 -4 2 -13 -4 -20 -14 -10
-16 -7 -22 15 -38 24 -18 27 -26 27 -82 0 -42 -5 -64 -14 -70 -20 -13 -23 -5
-8 19 10 17 10 23 -1 33 -12 11 -13 10 -8 -4 3 -10 2 -20 -4 -23 -5 -4 -9 -3
-8 2 3 20 -2 34 -11 28 -6 -4 -7 -12 -4 -18 4 -7 3 -8 -1 -4 -14 12 -15 37 -2
34 7 -1 11 4 9 11 -1 8 2 11 8 7 6 -3 7 -12 3 -18 -4 -7 0 -6 10 2 18 15 23
26 7 16 -5 -3 -10 3 -10 14 0 12 -4 21 -9 21 -4 0 -8 8 -7 18 0 9 -3 19 -9 20
-36 13 -45 23 -35 42 10 18 -3 40 -13 23z m104 -262 c-6 -10 -7 -22 -3 -26 4
-5 1 -5 -6 -1 -9 5 -9 12 -2 27 6 10 13 19 16 19 2 0 0 -8 -5 -19z m-86 -150
c3 -5 2 -12 -3 -15 -5 -3 -9 1 -9 9 0 17 3 19 12 6z m39 -57 c5 -14 4 -15 -9
-4 -17 14 -19 20 -6 20 5 0 12 -7 15 -16z m46 -69 c-7 -9 -15 -13 -17 -11 -7
7 7 26 19 26 6 0 6 -6 -2 -15z"/>
<path d="M30 1978 c0 -11 28 -10 35 1 3 6 -4 9 -15 8 -11 -1 -20 -5 -20 -9z"/>
<path d="M15 1441 c-3 -5 -2 -12 3 -15 5 -3 9 1 9 9 0 17 -3 19 -12 6z"/>
<path d="M60 1245 c0 -9 6 -12 15 -9 8 4 12 10 9 15 -8 14 -24 10 -24 -6z"/>
<path d="M3887 243 c-2 -4 -10 -25 -16 -45 -7 -21 -29 -70 -49 -110 -20 -40
-38 -76 -40 -80 -2 -5 19 -8 46 -8 48 0 51 2 61 32 6 18 11 73 12 121 2 82 -3
110 -14 90z"/>
<path d="M116 68 c-29 -27 -44 -68 -24 -68 11 1 64 90 53 90 -2 0 -15 -10 -29
-22z"/>
<path d="M180 63 c-14 -3 -29 -9 -35 -15 -13 -13 46 -1 60 13 5 5 7 8 5 8 -3
-1 -16 -4 -30 -6z"/>
</g>
</svg>
